<?xml version="1.0" encoding="utf-8"?>
<!-- Generator: Adobe Illustrator 19.2.1, SVG Export Plug-In . SVG Version: 6.00 Build 0)  -->
<svg version="1.1" id="Layer_1" xmlns="http://www.w3.org/2000/svg" xmlns:xlink="http://www.w3.org/1999/xlink" x="0px" y="0px"
	 viewBox="0 0 800 300" style="enable-background:new 0 0 800 300;" xml:space="preserve">
<style type="text/css">
	.st0{stroke:#FFFFFF;stroke-width:2;stroke-miterlimit:10;}
	.st1{fill:#202020;}
	.st2{fill:none;}
</style>
<path class="st0" d="M169,84.7v126.5c-12.6-17.9-20-39.7-20-63.3S156.4,102.6,169,84.7z"/>
<path class="st0" d="M270.9,112.4c0,11.6-4,20.3-11.8,25.7c-7.9,5.4-20.2,8-36.9,8H188V79h35c16.3,0,28.4,2.7,36.2,8
	C267,92.3,270.9,100.8,270.9,112.4z"/>
<path class="st0" d="M280,256c-6.8,1.3-13.8,2-21,2c-27.1,0-51.8-9.8-71-26v-67h11.5l70.2,91H280z"/>
<path class="st0" d="M311,160v22h52.6c-11,33.8-37.9,60.5-71.9,71l-68.2-88.2c21.6,0.7,38.3-3.8,50.1-13.3
	c11.8-9.5,17.7-22.7,17.7-39.4c0-8.4-1.6-16-4.9-22.9c-3.3-6.9-7.8-12.5-13.5-16.9c-5.7-4.3-12.6-7.6-20.5-9.5
	c-8-1.9-22.9-2.9-44.7-2.9H193c18.4-13.8,41.2-22,66-22c48.9,0,90.3,31.9,104.6,76H311v22h57.4c0,1,0,0.6,0,0.8c0,0.1,0,0.2,0,0.2
	c0.4,3.5,0.5,7.4,0.5,11c0,4-0.2,8.1-0.7,12H311z"/>
<g>
	<path d="M444.7,167.1c-2.1,1.3-6.2,3.3-11.7,3.7c-2.1,0.1-10.5,0.6-17-5.3c-7.2-6.6-6.8-16.2-6.7-19c0.4-8.9,5.3-18.4,12.9-22.1
		c1.8-0.8,4.9-2.4,8.9-2c1.8,0.1,2.8,0.6,7.3,1.6c2.4,0.5,4.4,0.9,5.6,1.2c1.8,0.5,3.6-0.4,4-1.7c0.1-0.3,0.1-0.7,0.1-1.1
		c-0.5-0.5-1-1.1-1.3-1.7c-0.4-0.2-0.9-0.5-1.3-0.8c-0.1-0.1-0.3-0.2-0.4-0.3c-0.1,0-0.1,0-0.2,0c-1.9-1.3-4.7-2.8-8.3-4
		c-6.3-2.1-11.5-1.8-12.7-1.7c-2.9,0.2-11.1,1.2-18,7.3c-9.7,8.6-9.9,21.1-10,25.3c-0.1,4.8-0.3,18.6,10.3,27.3
		c10.1,8.3,22.8,6.1,25,5.7c7.7-1.4,13.1-5.2,15.7-7.3c1.7-0.7,2.8-2,2.7-3C449.5,167.8,447.4,166.4,444.7,167.1z"/>
	<g>
		<g>
			<g>
				<g>
					<path class="st1" d="M444.5,166.5c-0.1,0.1,0,0.3,0.4,0.2c0,0,0.1-0.1,0.1-0.2c0.1-0.1,0.1-0.2,0.1-0.2
						C445.2,166.2,444.5,166.5,444.5,166.5z"/>
					<path class="st1" d="M447.3,167c0.5-0.1,1.1-0.1,0.9-0.5c-0.6,0.1-0.7,0-1.3,0.2c-0.4,0-0.7-0.2-0.6-0.3
						c-0.1,0.1-0.7-0.1-0.9,0.2c0.6,0.2,1.2,0.2,1.9,0.2C447.5,166.9,447.3,167,447.3,167z"/>
					<path class="st1" d="M419,179l0.2,0.1C419.2,179,419.1,179,419,179z"/>
					<path class="st1" d="M400.9,166.3c0.1,0.1,0.2,0.2,0.2,0.2C401,166.4,400.9,166.3,400.9,166.3z"/>
					<path class="st1" d="M399.5,162.7c0,0.1,0,0.1,0.1,0.2C399.6,162.8,399.6,162.7,399.5,162.7z"/>
					<path class="st1" d="M419,179l-0.6-0.2C418.4,178.9,418.7,178.9,419,179z"/>
					<path class="st1" d="M449.7,171.3c0.1-0.1,0.2-0.3,0.2-0.4C449.8,171.1,449.7,171.2,449.7,171.3
						C449.6,171.3,449.7,171.3,449.7,171.3z"/>
					<path class="st1" d="M429.1,179l0.2,0c0,0,0.1-0.1,0.1-0.2L429.1,179z"/>
					<path class="st1" d="M436.5,177.2c-0.2,0.1-0.1,0.3-0.2,0.5c0.1-0.1,0.2-0.2,0.3-0.3C436.7,177.3,436.6,177.3,436.5,177.2z"/>
					<path class="st1" d="M447.5,171.6l0.2-0.1C447.6,171.5,447.5,171.5,447.5,171.6z"/>
					<path class="st1" d="M423.5,179.2c0,0,0-0.1-0.1-0.1C423.5,179.1,423.5,179.1,423.5,179.2z"/>
					<path class="st1" d="M436,169.1C436,169.1,436,169.1,436,169.1C436,169.1,436,169.1,436,169.1z"/>
					<path class="st1" d="M444.7,167.2l-0.1,0.1c0,0.1,0,0.1,0.1,0.1L444.7,167.2z"/>
					<path class="st1" d="M398,155.8C398,155.9,398,155.9,398,155.8C398,156.1,398,156,398,155.8z"/>
					<path class="st1" d="M433,115.6c-0.7-0.4,1.2,0,0.2-0.6C433.3,115.2,432.2,115.3,433,115.6z"/>
					<path class="st1" d="M449.5,171.5c-0.1,0.1-0.2,0.2-0.3,0.3C449.3,171.6,449.4,171.6,449.5,171.5z"/>
					<path class="st1" d="M433.2,115.1L433.2,115.1l-0.1-0.1C433.2,115,433.2,115.1,433.2,115.1z"/>
					<path class="st1" d="M397.8,139.6c-0.1,0-0.1,0.1-0.1,0.1C397.6,139.7,397.7,139.7,397.8,139.6z"/>
					<path class="st1" d="M396.9,151.8l0-0.3C396.9,151.6,396.9,151.7,396.9,151.8z"/>
					<path class="st1" d="M398.9,133.3c0.1-0.1,0.1-0.2,0.2-0.4c0,0,0,0-0.1,0.1C399,133.1,399,133.2,398.9,133.3z"/>
					<path class="st1" d="M401.7,127.4c0,0-0.1,0-0.1,0.1c0,0.1-0.1,0.1-0.1,0.2L401.7,127.4z"/>
					<path class="st1" d="M417.5,165.2c0.1,0.2,0.1,0.3,0.1,0.4C417.7,165.3,418.4,165.9,417.5,165.2z"/>
					<path class="st1" d="M449.5,171.2c0,0.1,0,0.2-0.1,0.3C449.5,171.4,449.6,171.3,449.5,171.2
						C449.6,171.2,449.6,171.2,449.5,171.2z"/>
					<path class="st1" d="M396.9,132.3l0.4-1C397.2,131.6,397,132,396.9,132.3z"/>
					<path class="st1" d="M422.7,125.4l-0.2,0.1C422.6,125.5,422.6,125.5,422.7,125.4z"/>
					<path class="st1" d="M398.7,128.3c0.2-0.1,0.3-0.3,0.5-0.5c0-0.1,0-0.1,0-0.2L398.7,128.3z"/>
					<path class="st1" d="M417.6,165.5L417.6,165.5L417.6,165.5z"/>
					<path class="st1" d="M423.7,168.1c-0.9-0.3-0.5,0.2-0.8,0.3c-1.1-0.3-0.4-0.5-0.7-0.8c-0.7-0.2-1.3-0.1-1.8-0.4
						c0-0.1-0.1-0.1,0.1-0.1c-0.4-0.1-0.9-0.3-1.4-0.6c-0.5-0.3-1-0.6-1.5-0.8c0-0.1,0-0.1,0-0.1c0,0.2-0.1,0.4-0.2,0.5
						c-0.3-0.3-0.8-0.4-0.8-0.6c0.2,0.2,0.3,0.1,0.4,0.1l-0.4-0.2c-0.1-0.5,0.6,0.3,0.7,0.1c-0.8-0.5-1.7-1-2.1-1.6
						c0.2-0.3,1.2,1.1,0.8,0.2c0,0,0.6,0.9,0.7,0.8c-0.2-0.9,0.5,0.4,0.3-0.5c-0.9-1-1.2-0.9-2-2.1c-0.3-0.1-0.2,0.3-0.5,0.1
						c-1.4-1.4-0.2-1.7-1.3-2.7c-0.4-0.2-0.8-0.2-1.1-1.2l0.5,0.2c-0.5-1.2-0.8-0.5-1.1-1.9c0.2,0.2,0.5,0.9,0.5,0.7
						c0-1-0.4-0.5-0.7-1.2l0.3-0.2c-0.5-1.3-1-2.9-1.3-4.5c0.1,0.1,0.2,0.3,0.3,0c-0.4-2-0.2-4.4,0.2-6.3c0,0-0.1-0.2-0.1-0.4
						c-0.1-0.2-0.1-0.4-0.1-0.4c0-0.2,0.2-0.3,0.2-0.1c0.2-0.7-0.2-0.1-0.2-0.4c0-0.4,0.2-0.5,0.3-0.3c-0.1-1.3,0.2-3.9,1-5.1l0,0.3
						c0.5-1-0.1-1.4,0.5-2.3l0,0.2c1-2.2,2.2-4.6,3.7-5.8c-0.1-0.3,0.3-0.7,0.7-1.1c0.4-0.4,0.8-0.8,0.6-1c0.6-0.4,0.8-0.5,1.1-0.6
						c0.3-0.1,0.6-0.4,1.4-0.8c0.4-0.3,0.4-0.8,0.9-1.1l0.2,0.2c0,0,0.5-0.7,0.5-0.7l0.6,0.1l0.5-0.3c-0.2,0.1-0.5,0.1-0.5,0
						c0.7-0.6,2.2-0.8,2.2-0.7c0,0,0.5-0.3,1-0.5c0.5-0.2,1-0.5,1-0.5c0,0.1-0.3,0.3-0.6,0.4c1-0.6,0.3,0.2,1.2-0.3
						c-0.2,0,0-0.2,0-0.3c0.5,0,1.7-0.2,2.5-0.3l-0.1,0.2c0.8,0,1.6,0,2.4,0c0.8,0.1,1.7,0.3,2.6,0.5c-0.6-0.3-0.4-0.6,0.2-0.5
						l0.1,0.4c0.4-0.1-0.5-0.3,0.2-0.3c0.7,0.2,0.4,0.5,0,0.5l0.9,0.1c0,0.1-0.2,0.1-0.3,0.2c0.4-0.1,1.4,0.7,2,0.4l0,0.1
						c1.9,0.4,2.7,0.5,4.3,0.8c0.1-0.3,0.7-0.1,1.2-0.2c0.6,0.2,1,0.4,1.9,0.6c0.8,0.1,1.7,0.1,2.5-0.3c1.1-0.8,0.2-0.4,0.6-0.8
						c0.1,0.1,0.5-0.2,0.8-0.4c0.3-0.3,0.4-0.5,0.2,0c0.4-0.5,0.6-1.1,0.6-1.6c0.1-0.5,0-1-0.1-1.4c-0.2-0.2-0.4-0.3-0.5-0.5
						c-0.1-0.1-0.2-0.2-0.3-0.3c-0.1-0.1-0.2-0.2-0.3-0.3c0-0.1-0.1-0.1-0.2-0.2c-0.1-0.1-0.2-0.3-0.3-0.5c-0.1,0-0.2-0.1-0.3-0.2
						c0.1,0.1,0.2,0.2,0.2,0.3c0.1,0.2,0.1,0.3,0,0.2c0,0-0.1-0.1-0.1-0.1c-0.1-0.1-0.2-0.1-0.3-0.2c-0.1-0.1-0.2-0.2-0.2-0.2
						c-0.1-0.1-0.1-0.2-0.1-0.2l0.1,0c-0.4-0.2-0.7-0.4-1.1-0.7l-0.1-0.1l-0.3-0.1l-0.2-0.1l0.4,0.1c-1.7-1.2-3.4-2.8-5-3l0.1,0
						c0,0-0.5-0.1-1-0.3c-0.5-0.1-1-0.2-1-0.2c-0.8-0.4,0.6,0,0-0.4c-2.2-0.3-3.2-1.1-5-1.3c-0.6-0.5-1.8-0.8-3.1-0.9
						c-1.3-0.1-2.6-0.1-3.5-0.4l0.1,0.2c-0.5,0.2-0.6-0.1-0.9-0.2c0.1,0.1,0.5,0.2,0.2,0.3c-4.1,0.1-8.4,0.5-12.5,1.9
						c-0.7,0.3-0.8,0.6-1,0.8c-0.2,0.3-0.4,0.5-1.4,0.8l0.3-0.5c-1.3,0.9-2.7,1.6-4,2.5c-1.3,0.9-2.6,1.9-3.5,3.1
						c0.1-0.2,0-0.3,0.2-0.5c-0.6,0.3-1.7,1.7-1.5,1.8c-0.3,0.3-0.2,0-0.5,0.1c-0.5,0.4-0.8,1.4-1.2,1.6c-0.1,0,0-0.2,0.1-0.3
						c-0.2,0.4-1.2,1.6-0.7,1.4c-0.4,0.4-0.6,0.9-0.9,1.4c-0.2,0.5-0.5,0.9-0.8,1.2c0,0.7-1.1,1.7-0.7,2c-0.4-0.3-1.2,1.7-1.2,2.4
						c0-0.3-0.3,0.5-0.4,0.2c-0.3,0.8-0.4,1.5-0.1,1.5c-0.5,0.6-0.6,1.4-0.6,2.1c-0.1,0.7-0.1,1.3-0.5,1.6c-0.2,2.4-0.3,4.6-0.3,6.8
						c-0.5-0.1,0.1-2.4-0.4-2.3c0,2.1,0.4,3.2,0.2,5.2c-0.1,0.5-0.2-0.3-0.3-0.5c0.1,2,0,3.9,0.4,5.7c0,0-0.1-0.2-0.2-0.4
						c0,0.4,0,0.8,0.2,0.8l-0.1-0.3c0.2-0.6,0.7,1.3,0.9,1.4c-0.7-0.5,0.1,1.8-0.8,0.9c0.1,0.2,0.2,0.5,0.3,0.4c0,0.3,0,0.5-0.3,0.1
						c0.3,1.3,0.4,0.8,0.7,1.9c-0.1,0-0.2-0.2-0.3-0.3c0.3,0.5,0.6,1.1,0.8,2c-0.1,0-0.1,0.1-0.2-0.2c0.5,1.6,1.3,2.6,1.8,4.4
						c-0.6-0.3,0.1,0.6-0.2,0.9c0,0,0.5,0.9,0.5,0.9c0,0,0-0.1,0-0.2c0-0.1,0-0.2,0-0.2c0.4,0.8,1,1.3,1.2,2.1l-0.4-0.5
						c0,0,0.2,0.4,0.4,0.7c0.2,0.3,0.5,0.7,0.5,0.7l-0.4-0.9c0.6,0.7,0.4-0.3,0.9,0.7c-0.2-0.2,0.4,0.7,0.5,1.2l0,0
						c0.4,0.3,0.7,0.5,1,1.1c0,0.2-0.4,0.1-0.4,0.3c0.5,0.2,1.4,1.5,2,1.7c-0.2-0.1-0.3,0-0.3,0.1l0.4,0.1c0.2,0.4,0.2,0.4,0.1,0.5
						c0.8,0.9,0-0.6,1,0.5c-0.1-0.1-0.1,0-0.3-0.1c0.5,0.5,1,1,1.6,1.4c0.6,0.4,1.1,0.7,1.6,1.2c0.1,0.5-1-0.6-0.8-0.1
						c1.6,1.1,3.6,1.8,5.2,2.6c0,0-0.3-0.2-0.3-0.2c0.4-0.4,1.2,0.8,2.1,0.9c-0.2,0-0.4,0.2-0.3,0.1c1.2,0.5,2.5,0.7,4.4,1l-0.3,0.1
						c0.7,0.3,1.9,0.5,2.7,0.6c0.3-0.1,0.7,0,0.5-0.3c1.2,0.5,2.4,0.5,3.5,0.4c1.1-0.1,2.2-0.3,3.4,0c-0.3,0-0.6,0.2-0.4,0.1
						c0,0,0.5-0.1,0.9-0.1c0.5-0.1,0.9-0.2,0.9-0.2c-0.2-0.2-0.3-0.1-0.7-0.3c0.2-0.2,0.7-0.3,1.2-0.4c-0.8,0.3,0.1,0.4,0.4,0.4
						c-0.1-0.1,0-0.2,0-0.2c1,0.3,0.1-0.5,1.4-0.4l0,0.1c0.5-0.2,0.9-0.4,1.4-0.5c0.3,0.2-0.5,0.2-0.5,0.5c0.7-0.2,1.3-0.8,2-0.8
						c-0.3,0.2-0.7,0.3-1,0.4c0.8,0.1,0.9,0,1.4-0.1l-0.1,0c0,0,0.3-0.1,0.6-0.1c0.3-0.1,0.6-0.1,0.6-0.1l-0.3,0
						c0.7-1,1.8-0.7,2.8-1.7c-1,0.9-0.1,0.3-0.1,0.6c0.3,0,0.8-0.2,0.7,0c0.4-0.5,1-0.2,1.6-1c0.1,0.1,0.6-0.3,0.6,0
						c0.7-0.4-0.2-0.1-0.2-0.2c0.9-0.9,2.7-1,3.9-2.4c0.6-0.5,0.8-0.9,1.1-1.2c0.1-0.2,0.3-0.4,0.4-0.6c0.2-0.2,0.3-0.4,0.6-0.6
						c0.5-0.1-0.2,0.5-0.2,0.5c0.7-0.1,1.3-0.5,1.8-1.1c-0.1,0.2,0.1,0.1,0.4,0c0.4-0.5,0-0.5,0.6-1.2c0,0.2,0.1,0.4,0,0.8
						c0.4-0.7,0.6-1.8,0.1-2.5c0.1-0.3,0.5,0.4,0.6,0.8c0-0.3-0.1-0.6-0.3-0.9c-0.2-0.3-0.4-0.5-0.6-0.7c-0.4-0.3-0.8-0.5-1-0.4
						c0,0,0.4,0.4,0.4,0.4c-0.2-0.2,0-0.3,0.2-0.2c0.8,0.4,0.7,1,0.6,1c0,0-0.4-0.4-0.4-0.4c0,0.4,0.3,0.8,0.3,1.4
						c0.1,0.6-0.2,1.3-0.6,1.7c0,0,0-0.6,0-0.6c0,0-0.1,0.3-0.2,0.5c-0.1,0.2-0.3,0.5-0.3,0.5c-0.2,0.1-0.5,0-0.2-0.4
						c-0.7,0.3-0.4,0.5-1,0.6c-0.1,0-0.1,0,0-0.1c0,0-0.1,0.1-0.3,0.2c-0.1,0.1-0.3,0.2-0.3,0.2c0.1-0.1-0.3-0.2,0.2-0.3
						c-0.2,0-0.4,0.1-0.5,0.2c-0.1,0.1-0.2,0.2-0.3,0.3c-0.2,0.2-0.3,0.3-0.5,0.5c-0.3,0.3-0.5,0.5-0.8,0.5l0.1-0.1
						c-1.3,1.1,0.1,0.4-0.8,1.4c0,0-0.3,0-0.6-0.1c-0.3,0-0.6-0.1-0.6-0.1l0,0.3c-0.2,0.1-0.5,0.3-0.5,0.1c-0.5,0.5,0.2,0.1-0.1,0.4
						c-0.9,0.2-2,1.3-2.4,0.9c-0.2,0.3,0.8-0.2,0.1,0.3c-0.5-0.3-0.9,0.5-1.7,0.6c0.1-0.3,0.8-0.5,0-0.4c-0.2,0.6-1.4,0.5-2,0.8
						c0.1,0.4-1.3,0.6-2.3,1c0-0.1-2,0.3-3.1,0.4l0-0.1c-0.1,0.4-1.2,0.5-1.9,0.7c0-0.2,0.1-0.3,0.5-0.5l-0.7,0.1
						c-0.2,0.1-0.4,0.2-0.8,0.3l0.2-0.3c-0.9,0.1-1.9,0.5-3.1,0.3c-0.1,0.3,1,0.7-0.3,0.9c0-0.1-0.1-0.4,0.2-0.4
						c-0.1,0-0.4,0.1-0.6,0.1l0.5-0.2c-0.6-0.1-0.3,0.2-0.7,0.2c0-0.2-0.3-0.1-0.3-0.3c0.1,0,0.4,0.1,0.6,0c-0.5,0-1.1-0.2-1.3-0.3
						c0,0.1,0,0.3-0.4,0.3c-0.9,0-0.3-0.3-0.9-0.4c-0.2,0.1-0.8-0.1-0.9,0.2c-0.3,0-0.3-0.2-0.4-0.3c-0.5,0.1-2.3-0.3-1.8,0.1l0.1,0
						c0,0-0.1,0-0.1,0l0,0l0,0c-1.7,0-3.2-0.9-4.8-1.3l0-0.1c-0.9-0.2-2-0.7-2.7-0.8c-0.3-0.1-0.5-0.5-0.4-0.5
						c-0.7-0.3-0.8-0.2-1.6-0.9c0.7,0.2-0.1-0.3,0.7,0.3c-0.8-0.6-0.8-0.8-1.9-1.1c0.4,0-0.4-0.7-0.8-0.9l0.4,0.5
						c-0.4-0.3-0.8-0.6-1.1-0.8l0.4-0.1c-1.2-1.4-3.1-1.7-3.5-3.3c-0.5-0.2,0.6,0.9,0.1,0.7c-0.3-0.3-0.5-0.8-0.6-1.1
						c-0.1-0.4-0.2-0.7-0.3-0.8c-0.6-1.1-1.1-0.6-1.7-1.7c0,0.2-0.2,0.5-0.8-0.3c-0.4-0.8-0.1-1.2,0.2-0.8c0.1,0.2,0.1,0.3,0.1,0.3
						c0.2,0.2,0.4,0.5,0.4,0.1l-0.2,0c-0.2-0.4-0.7-1.5-0.4-1.3c-0.4-0.5-0.3-0.2-0.1,0.3c-0.4-1.1-0.8-1.6-1.1-2.7
						c0,0.2-0.1,0.4-0.1,0.2c-0.5-1.6-0.5-0.6-0.9-1.7c0-0.7,0.5,0.1,0-1c-0.1-0.7,0.2-0.2,0.4,0c-0.5-0.9-0.4-1.9-0.5-2.5
						c0,0,0.1,0.1,0.1,0.3c0.1,0.1,0.1,0.3,0.1,0.3c-0.2-0.3-0.2-0.6-0.3-0.8l-0.2,0.4c0-0.3-0.1-0.6,0-0.6
						c-0.2-0.3-0.3,0.3-0.7-0.3c0-0.4-0.4-1.3-0.1-1.5c0.1,1.4,0.3-0.2,0.5,0.9c-0.1-0.2-0.1-0.5-0.1-0.8c0-0.1,0.1,0,0.1,0.1
						c0.1-1.3-0.5-0.5-0.6-1.9c0.2,0.2,0.3-0.4,0.2-0.6c0.1,0.5-0.3,0.3-0.5-0.2c0.1-0.9-0.2-0.9-0.2-1.4l0,0.5
						c-0.2-0.2-0.2-0.6-0.3-1.2c0.1-0.1,0.1,0.6,0.2,0.3c-0.3-0.7,0.2-1.6,0-2.5c0.1-0.4,0.3,0,0.4-0.4c-0.2-1.1,0.2-1.2,0.1-2.3
						c-0.2,0.3-0.2,0.4-0.4-0.4l0.1,1.9l-0.3-1.2c0,0.6,0.1,1.2,0.1,1.5c-0.2-0.6-0.1-0.5-0.3-0.2c0.4-0.8-0.2-1.5,0.1-2.4l0.6,0
						c0.3-1.3-0.2-2.4,0.1-4.1l-0.2,0.5c-0.2-0.3,0.1-1.1,0.1-1.6c0.2,0.1,0.3-0.3,0.5-0.5c-0.2,0,0.2-1.2-0.1-1.5l0.4-0.7
						c0.4-1.3-0.2-1.7,0.2-2.9c0.1,0.4,0.4-0.1,0.3,0.8c0.1-0.4,0.3-0.8,0.1-0.8c0.2-0.2,0.1-1.3,0.4-1.6c0-0.2-0.2-0.3,0-0.8
						c0.1,0,0.1,0,0.1,0c-0.1,0,0.2-0.8-0.2-0.5c1.1-1,1.6-3.6,2.7-4.3c0.4-0.9,1.1-1.8,1.6-2.6c0,0.1,0.1,0.1,0,0.2
						c0.9-0.8,0-0.9,1.1-1.9c0.7-0.3-0.4,0.7,0,0.4c0.6,0.3,1.1-1.3,2-1.6l-0.1,0.2c0.3-0.2,0.6-0.5,0.9-0.9
						c0.3-0.4,0.7-0.8,1.2-1.1c0,0,0,0.1,0.1,0.1c0.4-0.7,1.6-1.7,2.6-2.3c-0.2,0.4-0.4,0.4-0.1,0.5c0.4-0.3-0.3-0.3,0.5-0.9
						c0.4,0,1.1-0.2,1.3,0l-0.8,0.4c0.6,0.1,1.1-0.6,1.6-0.7l0,0.2c1.3-0.6,1.2-1,2.6-1.5l-0.2-0.1c0.7-0.6,0.7,0,1.5-0.6l0.4,0.3
						c0.5-0.3,1.8-0.9,2.8-1.1c-0.5,0.4-1.6,0.8-2.3,1.2c0.5-0.1,1.8-0.5,2.1-0.7c-0.2,0.1-0.5,0.2-0.7,0.2c0.6-0.5,1.5-0.8,2.6-0.9
						c0,0.4,0.7,0.3,1.5,0.3c0.8-0.1,1.8-0.1,2.2,0.2c1.9-0.3,3.8,0.3,6.1,0.6c-0.7-0.7,0.7,0.1,0.6-0.5c0.5,0.1,0.7,0.1,0.8,0.2
						c0,0,0.4,0.2,0.7,0.4c0.4,0.2,0.7,0.4,0.7,0.4c0.3,0.3-0.5,0-0.5,0.1c1.1,0.3,0.4,0.4,1.1,0.7c-0.1-0.3,0.5-0.2,1.1,0.1
						l-0.8-0.5c1.6,0.2,1.2,0.9,2.8,1.2l-0.5,0c0.8,0.2,2.8,1.2,3.7,1.1c0.1,0.1,0.2,0.4-0.2,0.2c0.9,0.5,2.1,1,3.1,1.5l0.2,0.1
						l0.2,0l0.1,0l-0.4-0.2c0.3,0.2,0.6,0.4,0.9,0.6c0.2,0.1,0.3,0.2,0.5,0.3l0.1,0.1c0,0,0,0,0.1,0.1l0,0.1l0,0l0,0.1
						c0,0-0.2-0.1-0.2,0c0.2,0.3,0.6,0.5,0.9,1c-0.1,0-0.2,0-0.1,0.1c0.1,0.1,0.1,0,0.2,0.1c0.1,0,0.1,0.2,0.1,0.3
						c0,0-0.2-0.1-0.2-0.1c-0.1,0.1-0.1,0.1-0.2,0.4c-0.1,0.2-0.2,0.4-0.4,0.6c-0.3,0.4-0.9,0.7-1.6,0.7c0-0.2-0.2-0.4-0.7-0.6
						c-0.5-0.2-1-0.4-1.4-0.5l0-0.1c-2.3-0.5-4-0.4-6.1-0.8c-0.6-0.4-1.7-0.7-2.9-1c-0.6-0.2-1.3-0.3-2-0.4
						c-0.7-0.1-1.3-0.2-1.9-0.2c0.4,0.1-0.1,0.3-0.5,0.4c-0.6-0.1-1.5,0.4-1.4,0l0.2,0c-0.5-0.3-1.6,0-2.4,0.2l0,0.5
						c-2.5-0.1-5.2,2.5-6.5,2.6c-0.4,0.4-0.9,0.8-1.2,1.3l-0.2-0.2c-1.2,0.9-1.8,1.4-3,2.9c0,0,0-0.1,0-0.2c0-0.1,0.1-0.2,0.1-0.2
						c-0.7,0.8-0.2,1.5-0.8,2.3l-0.5,0c-1,1.4-2.3,2.9-2.7,4.7c0-0.1-0.1-0.2,0-0.4c-0.4,0.7-1.5,2.9-0.9,2.8
						c-0.4-0.1-0.6,1.7-0.7,2.7l-0.2-0.2c0.2,0.9,0.2,0.9,0.1,2c-0.1,0.3-0.3,0.2-0.1-0.1c-0.3,0.8,0.1,0.7-0.2,1.8l-0.1-0.4
						c-0.1,0.9,0,0.8,0.1,1.4c0.1,0.6-0.2,1.7-0.5,1.8c0.1,0.1,0.3,0.6,0.2,1.2c-0.1,0.1-0.2-0.1-0.2-0.2c-0.2,1.5,0.3,2.3,0.1,3.3
						c-0.1,0-0.1,0.1-0.2,0.2c-0.1-1.2-0.1-2.2-0.1-2.1c-0.3,0-0.3,1-0.7,0.2c0.2,0.8,0.7,2.1,0.7,3.1c0,0,0,0.1-0.1,0.1l0-0.1
						c0,0.2,0.1,0.4,0.1,0.6c0,0.3,0,0.5,0,0.8c-0.2,0.1,0.1,1.2,0.2,1.6c0.3-0.1,0.4,0.5,0.5-0.1c0,0.1-0.1-0.1-0.1-0.4
						c0-0.1,0-0.2-0.1-0.2l0,0c-0.1-0.3-0.2-0.7-0.2-1.2c0.2,0.4,0.4,0.7,0.4,1.3c0.2,0.2,0.5,0.4,0.6,0.6c-0.2,0.7,0,2-0.2,2.3
						c0.6,1.4,1.5,3.3,2.5,3.8c0.3,0.3,0.1,0.5,0.1,0.7c-0.2-0.2-0.3-0.4-0.5-0.5c0.5,0.7,1.5,2.1,1.9,2c0.6,0.9-0.7-0.3,0.3,0.9
						l-0.2-0.1c0.7,1.3,1.8,2,2.9,2.6c0.5,0.3,1.1,0.6,1.7,0.9c0.6,0.3,1.2,0.7,1.8,1.3c-0.2-0.1-0.3-0.2-0.3-0.3
						c1.5,1,3.4,1.6,5.2,2c1.8,0.4,3.7,0.6,5.5,0.9c1,0.1,1.1-0.1,1.8-0.3l0.2,0.3c0,0,0.3-0.1,0.5-0.2c0.3-0.1,0.5-0.2,0.5-0.2
						c1.4-0.4,2.7,0.4,4.5-0.5l-0.3-0.1c0.7-0.1,2-0.7,2-0.5c0.1-0.1,0.1-0.3,0.4-0.3l0.1,0.1c0,0,0.4-0.2,0.7-0.4
						c0.4-0.2,0.7-0.5,0.7-0.5c1.2-0.4,0.1,0.7,1.8-0.1c0.6-0.4,1.6-1.4,1.3-1.4c-0.2,0.1-0.7,0.3-0.8,0.2l0.5-0.4
						c-0.1-0.5,0-1.1-1.4-0.6c0,0-0.2,0.2-0.4,0.4c-0.2,0.2-0.4,0.4-0.4,0.4l-0.4-0.1l0.8-0.4c-0.5,0-0.7,0.3-1,0.6
						c-0.1-0.1-0.3-0.1-0.5,0c0,0-0.2,0.2-0.4,0.4c-0.2,0.2-0.4,0.4-0.4,0.4c-0.2-0.1,0.3-0.5-0.4-0.3c-0.4,0.4,0.6,0.2-0.1,0.6
						c-0.5,0-0.5-0.2-1,0.1c-0.1-0.1,0-0.2,0.2-0.3c-0.4,0.3-1.3,0.5-1.5,0.8c-0.6-0.1-1.7,0.5-1.7,0c-0.1,0.1-0.8,0.5-1.3,0.6
						c0.8-0.6-1.8,0.2-1.6-0.4c-0.6,0.5-2.3,0.3-3.5,0.5c0.1,0,0.2-0.1,0.3-0.1c-0.6-0.1-0.8-0.2-1.2-0.4c-0.1,0.4-1.1,0.4-1.7,0.5
						c-0.7-0.5,0.6-0.4,0.4-0.8c0,0.3-1.4,0.1-1.2,0.4c-0.5-0.4-0.5-0.2-0.7-0.6c-0.2,0.5-0.6-0.1-1.1,0.1c-0.8-0.5-0.1-0.5-1-0.7
						C422.9,168,423.7,168.1,423.7,168.1z M410.2,151.7L410.2,151.7c0,0.2,0.1,0.4,0.1,0.5C410.3,152,410.3,151.9,410.2,151.7z
						 M410.1,149.7c0,0.2,0,0.5,0,0.8c-0.1,0.1-0.2,0-0.2-0.2C410,150.5,410,150,410.1,149.7z M408.6,154.2c-0.1-0.3-0.1-0.4,0-0.5
						c0,0.2,0.1,0.3,0.1,0.6c0,0,0,0,0,0C408.8,154.3,408.7,154.2,408.6,154.2z"/>
					<path class="st1" d="M409.1,154.7c0,0,0,0.1,0.1,0.1C409.2,154.8,409.2,154.7,409.1,154.7c0-0.1,0-0.1,0-0.2
						C409.1,154.6,409.1,154.6,409.1,154.7z"/>
					<path class="st1" d="M419.3,179.1L419.3,179.1C419.3,179.1,419.3,179.1,419.3,179.1C419.3,179.1,419.3,179.1,419.3,179.1z"/>
					<polygon class="st1" points="420.9,126.6 420.9,126.5 420.8,126.7 					"/>
					<path class="st1" d="M430.3,180.2c0,0,0.1,0,0.2,0C430.4,180.2,430.4,180.2,430.3,180.2z"/>
					<path class="st1" d="M435,179.2l0.7-0.1C435.4,179.1,435.2,179.2,435,179.2z"/>
					<path class="st1" d="M438.6,178.1c0-0.1,0-0.1,0-0.1l0,0L438.6,178.1z"/>
					<path class="st1" d="M395.1,152.2c0-0.1,0-0.1,0-0.1C395,151.7,395,151.9,395.1,152.2z"/>
					<path class="st1" d="M401.1,168.7c-0.1-0.1-0.3-0.3-0.4-0.4C400.8,168.5,401,168.7,401.1,168.7z"/>
					<polygon class="st1" points="396.9,132.5 396.9,132.5 396.9,132.3 					"/>
					<path class="st1" d="M400.2,167.6c0.1,0.3,0.3,0.5,0.4,0.7C400.6,168,400.4,167.8,400.2,167.6z"/>
					<path class="st1" d="M449.5,167.2l-0.2-0.2c0,0,0,0,0,0L449.5,167.2z"/>
					<path class="st1" d="M449.3,167.1c0,0-0.2-0.1-0.2-0.1C449.2,167.1,449.3,167.1,449.3,167.1z"/>
					<path class="st1" d="M448.6,166.8c0,0,0.5,0.2,0.5,0.2C449,166.9,448.8,166.8,448.6,166.8z"/>
					<path class="st1" d="M448.2,172.4l0,0.1C448.2,172.5,448.2,172.4,448.2,172.4z"/>
					<path class="st1" d="M447,173.1c0.1-0.1,0.4-0.2,0.5-0.2c0.1,0,0.4-0.1,0.7-0.3l0-0.1c0,0.1-0.1,0.1-0.3,0.2
						c-0.1,0-0.3,0.1-0.4,0.1c-0.1,0-0.1,0-0.2,0.1C447.1,172.9,447.1,173,447,173.1z"/>
					<path class="st1" d="M441.2,175.5c0,0,0.3-0.1,0.6-0.3c0.3-0.1,0.5-0.3,0.5-0.3c-0.2,0-0.6,0-0.1-0.3
						C440.7,175.2,442.6,174.7,441.2,175.5z"/>
					<path class="st1" d="M437.7,176.9c0.6-0.3-0.1-0.1-0.1-0.2C437.3,177,437.2,177,437.7,176.9z"/>
					<path class="st1" d="M411.3,176.2l0.2-0.2C411,175.8,411.4,176.1,411.3,176.2z"/>
					<polygon class="st1" points="406.1,174.5 406.5,174.9 406.8,174.8 					"/>
					<polygon class="st1" points="405.1,171 405.2,171.2 404.6,170.6 					"/>
					<path class="st1" d="M401.3,128.5l-0.3,0C400.9,128.8,401.2,129.1,401.3,128.5z"/>
					<path class="st1" d="M415.9,116.2c0.3,0.1,0.8,0,1.1-0.3C416.5,116.1,416.1,116.1,415.9,116.2z"/>
					<polygon class="st1" points="424.6,122 425,121.8 424.2,122.1 					"/>
				</g>
			</g>
		</g>
	</g>
</g>
<g>
	<path d="M515.2,174c-1.4-1.2-2.6-2.7-3.2-6.5c-1.7-9.3-1.6-20.2-1.5-23c0-0.3,0-0.3,0-0.4c0-0.1,0-0.1,0-0.1
		c0-0.5,1.1-10.1-0.8-17.8c-0.7-2.7-1.4-5.5-3.7-8.2c-2.8-3.3-6.3-4.5-8.2-5.2c-5-1.8-9.4-1.2-12-0.8c-2.2,0.3-5.4,0.8-9.1,2.9
		c-0.9,0.5-3.9,2.3-6.6,5.8c-2.3,2.8-3.5,5.7-4.1,7.8c0.7,0.3,1.4,0.6,2.1,1.1c0.3,0,0.7,0,1,0c0,0,0.2-0.1,0.7-0.2
		c0.1,0,0.2-0.1,0.3-0.1c0.1-0.6,0.3-1.2,0.8-1.6c0.7-0.7,1.5-1.5,2.1-2.2c0.6-0.7,1.4-0.9,2.1-0.8c0.6-0.9,1.5-1.7,2.4-2.3
		c0.2-0.1,0.5-0.3,0.7-0.4c0.6-0.5,1.3-1,2-1.3c1-0.5,2-0.8,3.1-1.2c0.1,0,0.1-0.1,0.2-0.1c2.1-1.2,4.5-1.2,6.5-0.3
		c1.3,0,2.8,0.1,4.5,0.5c1.4,0.4,5.3,1.5,7.7,5c1.6,2.3,1.7,4.6,2,9c0.2,3.6,0,6.6-0.2,8.6c-1.2-0.5-2.7-1.1-4.4-1.6
		c-1.4-0.4-2.5-0.6-4.8-1.1c-2.7-0.6-4-0.8-5.5-1c-1.4-0.1-3-0.2-4.9-0.1c-1.3,0.1-3.2,0.4-5.2,1.1c-1.7,0.6-2.9,1.3-3.5,1.6
		c-1.2,0.7-2.9,1.9-4.6,3.8c-1,1-2.5,2.5-3.8,4.6c-0.8,1.4-3.3,5.7-3,11.6c0.2,3.6,1.3,6.1,1.8,7c2.4,5.1,6.5,7.6,8.2,8.6
		c1.2,0.7,4.5,2.5,9.2,3c4.4,0.4,7.7-0.5,11-1.5c3.7-1.1,6.3-2.5,7.2-3c1.8-1,3.3-2,4.5-3c0.7,1.1,1.3,2.2,2,3.2
		c0.6,0.7,1.5,1.6,2.8,2.5c1.7,1.2,3.6,2.5,5.5,2c0.9-0.3,1.6-0.9,2.2-1.5c0.9-0.8,1.4-1.7,1.8-2.2
		C519.4,175.9,517.2,175.6,515.2,174z M498.5,170.5c-5.3,2.4-10.2,1.5-12.8,1c-2.6-0.5-4.8-0.9-7-2.8c-2.2-1.9-3.2-4.2-3.6-5.4
		c-0.5-1.3-1.4-3.7-0.9-6.9c0.5-2.7,1.7-4.5,2.4-5.4c2-2.8,4.5-4,5.6-4.6c5.6-2.8,11.2-1.9,14.1-1.4c2,0.4,4.7,1,7.8,2.5
		c0.3,3.1,0.5,6.3,0.6,9.6c0.1,2.9,0.2,5.7,0.2,8.5C503.9,167,501.7,169.1,498.5,170.5z"/>
	<g>
		<path class="st2" d="M515.2,174c-1.4-1.2-2.6-2.7-3.2-6.5c-1.7-9.3-1.6-20.2-1.5-23c0-0.3,0-0.3,0-0.4c0-0.1,0-0.1,0-0.1
			c0-0.5,1.1-10.1-0.8-17.8c-0.7-2.7-1.4-5.5-3.7-8.2c-2.8-3.3-6.3-4.5-8.2-5.2c-5-1.8-9.4-1.2-12-0.8c-2.2,0.3-5.4,0.8-9.1,2.9
			c-0.9,0.5-3.9,2.3-6.6,5.8c-2.3,2.8-3.5,5.7-4.1,7.8c0.7,0.3,1.4,0.6,2.1,1.1c0.3,0,0.7,0,1,0c0,0,0.2-0.1,0.7-0.2
			c0.1,0,0.2-0.1,0.3-0.1c0.1-0.6,0.3-1.2,0.8-1.6c0.7-0.7,1.5-1.5,2.1-2.2c0.6-0.7,1.4-0.9,2.1-0.8c0.6-0.9,1.5-1.7,2.4-2.3
			c0.2-0.1,0.5-0.3,0.7-0.4c0.6-0.5,1.3-1,2-1.3c1-0.5,2-0.8,3.1-1.2c0.1,0,0.1-0.1,0.2-0.1c2.1-1.2,4.5-1.2,6.5-0.3
			c1.3,0,2.8,0.1,4.5,0.5c1.4,0.4,5.3,1.5,7.7,5c1.6,2.3,1.7,4.6,2,9c0.2,3.6,0,6.6-0.2,8.6c-1.2-0.5-2.7-1.1-4.4-1.6
			c-1.4-0.4-2.5-0.6-4.8-1.1c-2.7-0.6-4-0.8-5.5-1c-1.4-0.1-3-0.2-4.9-0.1c-1.3,0.1-3.2,0.4-5.2,1.1c-1.7,0.6-2.9,1.3-3.5,1.6
			c-1.2,0.7-2.9,1.9-4.6,3.8c-1,1-2.5,2.5-3.8,4.6c-0.8,1.4-3.3,5.7-3,11.6c0.2,3.6,1.3,6.1,1.8,7c2.4,5.1,6.5,7.6,8.2,8.6
			c1.2,0.7,4.5,2.5,9.2,3c4.4,0.4,7.7-0.5,11-1.5c3.7-1.1,6.3-2.5,7.2-3c1.8-1,3.3-2,4.5-3c0.7,1.1,1.3,2.2,2,3.2
			c0.6,0.7,1.5,1.6,2.8,2.5c1.7,1.2,3.6,2.5,5.5,2c0.9-0.3,1.6-0.9,2.2-1.5c0.9-0.8,1.4-1.7,1.8-2.2
			C519.4,175.9,517.2,175.6,515.2,174z M498.5,170.5c-5.3,2.4-10.2,1.5-12.8,1c-2.6-0.5-4.8-0.9-7-2.8c-2.2-1.9-3.2-4.2-3.6-5.4
			c-0.5-1.3-1.4-3.7-0.9-6.9c0.5-2.7,1.7-4.5,2.4-5.4c2-2.8,4.5-4,5.6-4.6c5.6-2.8,11.2-1.9,14.1-1.4c2,0.4,4.7,1,7.8,2.5
			c0.3,3.1,0.5,6.3,0.6,9.6c0.1,2.9,0.2,5.7,0.2,8.5C503.9,167,501.7,169.1,498.5,170.5z"/>
		<g>
			<g>
				<g>
					<path class="st1" d="M498.2,169.9c0,0.1,0.1,0.3,0.2,0.2l-0.1-0.3L498.2,169.9z"/>
					<path class="st1" d="M499.3,170c0.1-0.2,0.1-0.6-0.1-0.8c0,0.4-0.1,0.3-0.1,0.7c-0.1,0.1-0.3,0-0.3-0.1c0,0.1-0.2,0-0.2,0.2
						c0.3,0.2,0.5,0.1,0.6-0.2C499.3,169.9,499.3,170,499.3,170z"/>
					<path class="st1" d="M505.3,159.2L505.3,159.2C505.3,159.3,505.3,159.3,505.3,159.2z"/>
					<path class="st1" d="M505,150.8C505,150.8,505,150.8,505,150.8C505,150.8,505,150.7,505,150.8z"/>
					<path class="st1" d="M505.2,149.3C505.2,149.3,505.2,149.3,505.2,149.3C505.3,149.3,505.3,149.3,505.2,149.3z"/>
					<path class="st1" d="M505.3,159.2l0.1-0.2C505.3,159,505.3,159.1,505.3,159.2z"/>
					<path class="st1" d="M500.5,168.4c0,0,0,0.1-0.1,0.1C500.5,168.5,500.5,168.5,500.5,168.4L500.5,168.4z"/>
					<path class="st1" d="M505.7,163L505.7,163c0,0.1,0.1,0.1,0.1,0.1L505.7,163z"/>
					<path class="st1" d="M505.7,166.2c0.1-0.1-0.2-0.2-0.3-0.3c0.1,0.1,0.1,0.1,0.1,0.2C505.5,166.1,505.6,166.1,505.7,166.2z"/>
					<path class="st1" d="M501.7,169L501.7,169C501.7,169.1,501.7,169.1,501.7,169z"/>
					<path class="st1" d="M505.7,160.9C505.7,160.9,505.7,160.9,505.7,160.9C505.7,160.9,505.7,160.9,505.7,160.9z"/>
					<path class="st1" d="M495.1,170.3C495.1,170.3,495.1,170.3,495.1,170.3C495.1,170.3,495.1,170.3,495.1,170.3z"/>
					<polygon class="st1" points="498.5,170.6 498.5,170.6 498.5,170.7 					"/>
					<path class="st1" d="M503.9,146C503.9,146,503.9,146,503.9,146C504.1,146.1,504,146,503.9,146z"/>
					<path class="st1" d="M479.4,146.8c0.4,0-0.2,0.5,0.3,0.5C479.6,147.3,479.8,146.8,479.4,146.8z"/>
					<path class="st1" d="M500.6,168.4C500.6,168.4,500.7,168.4,500.6,168.4C500.7,168.4,500.6,168.4,500.6,168.4z"/>
					<path class="st1" d="M479.7,147.4L479.7,147.4L479.7,147.4C479.7,147.4,479.7,147.4,479.7,147.4z"/>
					<path class="st1" d="M497.8,144.2c0,0.1,0,0.1,0,0.1C497.8,144.3,497.8,144.2,497.8,144.2z"/>
					<path class="st1" d="M502.2,145.9L502.2,145.9C502.1,145.9,502.1,145.9,502.2,145.9z"/>
					<path class="st1" d="M495.3,144.1c-0.1,0-0.1-0.1-0.2,0c0,0,0,0,0,0C495.2,144.1,495.3,144.1,495.3,144.1z"/>
					<path class="st1" d="M492.8,143.8C492.8,143.9,492.8,143.9,492.8,143.8l0.1,0.1L492.8,143.8z"/>
					<path class="st1" d="M488.1,170.7c0,0.1,0.1,0.2,0.1,0.3C488.2,170.7,488.5,170.7,488.1,170.7z"/>
					<path class="st1" d="M500.6,168.6c0-0.1,0-0.1,0-0.1L500.6,168.6C500.6,168.5,500.6,168.6,500.6,168.6z"/>
					<path class="st1" d="M494.9,146.3l-0.4-0.1C494.6,146.3,494.7,146.3,494.9,146.3z"/>
					<path class="st1" d="M475.8,161.9L475.8,161.9C475.9,161.9,475.8,161.9,475.8,161.9z"/>
					<path class="st1" d="M493.4,146.1c-0.1-0.1-0.1-0.2-0.2-0.2c0,0,0,0-0.1,0.1L493.4,146.1z"/>
					<path class="st1" d="M488.2,171L488.2,171L488.2,171z"/>
					<path class="st1" d="M490.6,170.5c-0.3,0-0.2,0.4-0.3,0.6c-0.4,0.1-0.2-0.3-0.3-0.5c-0.3,0.1-0.5,0.4-0.7,0.4
						c0-0.1,0-0.1,0-0.2c-0.3,0.3-0.8-0.1-1.2,0.3c0,0,0-0.1,0-0.1c0,0.2,0,0.4,0,0.5c-0.2,0-0.3,0.2-0.4-0.1c0.1,0,0.1-0.1,0.2-0.1
						l-0.2,0.1c-0.1-0.4,0.2-0.1,0.3-0.3c-0.3,0.1-0.8,0.3-1,0.2c0-0.3,0.6,0,0.3-0.4l0.4,0.2c-0.2-0.6,0.2,0.1,0-0.5
						c-0.5-0.2-0.6,0.1-1.1-0.1c-0.1,0.2,0,0.3-0.2,0.4c-0.8,0.2-0.4-0.9-1-0.6c-0.2,0.2-0.3,0.6-0.7,0.3l0.2-0.4
						c-0.5-0.1-0.4,0.5-0.8,0.1c0.1-0.1,0.4,0,0.3-0.1c-0.3-0.4-0.3,0.2-0.5,0.1l0-0.3c-0.5-0.1-1.1,0-1.7-0.1
						c0.1-0.1,0.2-0.2,0.1-0.3c-0.7-0.1-1.4-0.6-1.8-1.1l-0.4,0.1c0,0,0-0.2,0.1-0.2c-0.1-0.2-0.1,0.1-0.3,0.2
						c-0.1-0.1-0.1-0.3,0.1-0.3c-0.5,0-1.4-0.4-1.5-1l0.1,0c-0.2-0.3-0.7,0.1-0.8-0.4l0.1,0c-0.4-0.7-1.2-1.3-1.1-2.1
						c-0.4,0.1-0.2-0.8-0.8-0.6c0.1-0.6,0.2-0.5,0.1-1.2c0-0.2-0.4-0.1-0.6-0.3l0.3-0.1l-0.4-0.2l0.3-0.3l-0.1-0.2
						c0,0.1-0.1,0.2-0.2,0.2c-0.2-0.3,0-0.8,0.1-0.9c0,0-0.1-0.2-0.2-0.3c-0.1-0.2-0.2-0.3-0.2-0.3c0.1,0,0.2,0.1,0.3,0.2
						c-0.4-0.3,0.3-0.1-0.1-0.4c-0.1,0.1-0.2,0-0.2,0c0.1-0.2,0.1-0.6,0-0.9l0.2,0c0-0.5-0.2-1.1-0.1-1.8c-0.1,0.2-0.5,0.2-0.5,0
						l0.3-0.1c-0.2-0.1-0.1,0.2-0.4-0.1c0.1-0.2,0.4-0.1,0.5,0l-0.1-0.3c0.1,0,0.1,0.1,0.3,0.1c-0.2-0.1,0.4-0.4,0.1-0.6l0.1,0
						c0.1-0.6,0.1-0.9,0.2-1.4c-0.3-0.1-0.1-0.3-0.3-0.5c0.2-0.3,0.6-0.6,0.7-1c0-0.3-0.2-0.2-0.3-0.4c0.2,0.1,0.4-0.3,0.5,0
						c0.2-0.5,0.3-0.6,0.5-1.3c-0.1,0-0.2,0.1-0.3,0c0-0.1,0.3-0.2,0.3-0.1l0,0c0.2-0.9,1.7-1,1.7-1.7l0,0c0,0,0.1-0.2,0.1-0.3
						c0.1-0.2,0.1-0.3,0.1-0.3c0.3-0.2,0,0.3,0.3,0.2c0.2-0.8,0.9-0.7,1.2-1.2c0.8,0.4,1.3-0.9,2.1-0.8l-0.1-0.1
						c0.1-0.2,0.2,0,0.3,0c-0.1-0.1-0.2-0.1-0.2-0.2c1.1-0.8,2.6-0.8,3.9-1c0.5-0.1,0.1-1,0.8-0.7l-0.1,0.4c0.9-0.6,2-0.3,3-0.6
						c-0.1,0.1-0.1,0.2-0.2,0.2c0.2,0.2,0.8,0,0.8-0.2c0.2,0,0,0.2,0.1,0.3c0.2,0.1,0.5-0.3,0.6,0c0,0-0.1,0.1-0.1,0.1
						c0.1-0.1,0.6,0.1,0.5-0.2c0.4,0.2,0.7-0.1,1,0.1c0.2-0.3,0.6,0.2,0.7-0.2c-0.1,0.4,0.6,0.4,0.9,0.3c-0.1,0.1,0.2,0.2,0.1,0.3
						c0.3,0,0.5,0,0.5-0.2c0.4,0.6,1.1-0.3,1.3,0.5c0.8-0.1,1.6-0.1,2.4,0c-0.1,0.4-0.8-0.2-0.9,0.3c0.7,0,1.2-0.3,1.8,0
						c0.2,0.1-0.2,0.2-0.2,0.2c0.7,0,1.3,0.5,1.9,0.5c0,0-0.1,0.1-0.2,0.1c0.1,0,0.2,0.2,0.3,0l-0.1,0c-0.1-0.4,0.7-0.4,0.8-0.5
						c-0.4,0.5,0.5,0.4-0.1,0.9c0.1,0,0.2-0.1,0.3-0.2c0.1,0.1,0.1,0.2-0.1,0.3c0.2,0,0.3,0,0.3-0.1c0.1,0,0.1-0.1,0.2,0
						c-0.1,0.1-0.1,0.1-0.2,0.2c0.1-0.1,0.2-0.1,0.3-0.1c0.1,0,0.2,0,0.2,0.1c-0.1,0-0.1,0.1-0.1,0c0,0.1,0.2,0.2,0.3,0.4
						c0.1,0.2,0.2,0.5,0.1,0.8c-0.4-0.2-0.1,0.2-0.5,0.3l0.1,0.3l0.2-0.2c0,0.3,0.3,0.6,0.2,0.8l-0.2-0.2l0.1,0.6l0.1-0.3
						c0.2,0.3,0.5-0.1,0.4,0.4c0-0.1,0,0.3-0.2,0.5l0,0c0.1,0.1,0.3,0.3,0.2,0.5c-0.1,0.1-0.4,0-0.5,0c0.3,0.1,0.1,0.7,0.5,0.9
						c-0.1-0.1-0.3,0-0.3,0l0.3,0.1c-0.1,0.1-0.1,0.2-0.3,0.2c0,0.4,0.5-0.2,0.3,0.4c0,0-0.1,0-0.1-0.1c-0.1,0.5,0.2,1,0.1,1.5
						c-0.4,0.2-0.1-0.4-0.4-0.2c0.1,0.7,0.5,1.4,0.5,2l0-0.1c0.5,0.1-0.2,0.5,0,0.8c0-0.1-0.3-0.1-0.2-0.1c-0.1,0.5,0.2,0.9,0.3,1.6
						l-0.1-0.1c-0.1,0.3,0,0.7-0.1,1c0.1,0.1,0.1,0.2,0.3,0.1c-0.7,0.9,0.5,1.7-0.2,2.5c0-0.1-0.1-0.2-0.1-0.1l0.1,0.7
						c0.2-0.1,0.1-0.1,0.3-0.2c0.1,0.1,0.3,0.3,0.3,0.4c-0.2-0.3-0.4,0-0.5,0.1c0.1,0,0.1,0,0.2,0c-0.4,0.4,0.5,0,0.2,0.5l-0.1,0
						c0.1,0.2,0.2,0.3,0.2,0.5c-0.3,0.1-0.1-0.2-0.4-0.2c0,0.3,0.5,0.5,0.3,0.8c-0.1-0.1-0.1-0.3-0.2-0.4c-0.3,0.3-0.2,0.3-0.3,0.5
						l0,0c0,0-0.1,0.3-0.1,0.3l0.1,0c0.4,0.2,0.4,0.4,0.3,0.5c-0.1,0.1-0.2,0.2-0.2,0.5c0-0.6-0.1-0.2-0.3-0.5c-0.1,0-0.3,0.1-0.4,0
						c0,0.3-0.4,0.1-0.3,0.6c-0.1-0.1-0.2,0.1-0.3-0.1c-0.1,0.2,0.2,0.1,0.2,0.2c-0.1,0.5-1,0.3-1.2,1.1c-0.3,0.5-0.2,0.8-0.5,1.2
						c-0.2,0-0.1-0.4-0.1-0.4c-0.3,0-0.4,0.2-0.6,0.4c0-0.1-0.1-0.1-0.2-0.2c-0.2,0.1,0.1,0.4-0.2,0.4c0-0.1-0.1-0.3,0-0.4
						c-0.1,0.2-0.3,0.5-0.4,0.7c-0.1-0.1,0-0.3,0-0.4c-0.2,0.2-0.5,0.5-0.5,0.8l0.2,0c-0.1,0.1-0.2-0.2-0.1-0.3
						c0.1-0.3,0.3-0.1,0.4,0l-0.1,0.1c0.4,0.4,0.6-0.4,0.9-0.6l0.1,0.4l0.1-0.5c0.1,0,0.3,0.2,0.2,0.4c0.3,0,0.1-0.3,0.4-0.2
						c0,0,0,0,0,0.1l0.1-0.2c0,0.1,0.2,0.2,0,0.3c0.5-0.1,0.4-0.7,0.7-0.5l0,0c0.4-0.5-0.1-0.3,0-0.9l0.7,0.4l-0.1-0.3
						c0.1,0,0.2-0.1,0.2,0c0-0.3-0.1-0.1-0.1-0.3c0.4,0,0.5-0.7,0.9-0.4c-0.1-0.2-0.3,0.1-0.2-0.3c0.4,0.3,0.2-0.3,0.6-0.4
						c0.1,0.3-0.2,0.3,0.2,0.3c-0.2-0.4,0.5-0.4,0.7-0.7c-0.2-0.1-0.1-0.7-0.2-1.1c0.1,0,0.2-0.8,0.3-1.1l0.1,0
						c-0.4-0.1-0.3-0.5-0.4-0.7c0.2,0,0.3,0.1,0.4,0.2l0-0.3c-0.1-0.1-0.2-0.1-0.2-0.3l0.3,0.1c0-0.4-0.3-0.7-0.2-1.2
						c-0.3,0-0.7,0.4-0.9-0.1c0.1,0,0.4,0,0.4,0.1c0,0-0.1-0.1-0.1-0.2l0.2,0.2c0.1-0.2-0.2-0.1-0.2-0.3c0.2,0,0.1-0.1,0.3-0.1
						c0,0-0.1,0.1,0,0.2c0-0.2,0.1-0.4,0.3-0.5c-0.1,0-0.3,0-0.3-0.1c0-0.4,0.2-0.1,0.3-0.3c-0.1-0.1,0-0.3-0.3-0.3
						c0-0.1,0.1-0.1,0.2-0.2c-0.1-0.2-0.1-0.8-0.4-0.6l0,0l0,0l0,0l0,0c-0.3-0.6,0.1-1.2,0-1.8l0.1,0c-0.1-0.3-0.1-0.8-0.3-1
						c0-0.1,0.2-0.3,0.3-0.2c-0.1-0.3-0.2-0.3-0.1-0.7c0.2,0.3,0.1-0.1,0.1,0.3c0.1-0.4,0.2-0.4-0.1-0.8c0.3,0.1,0.3-0.3,0.2-0.4
						l-0.2,0.3c0-0.2,0-0.3,0-0.5l0.3,0.1c0.4-0.7-0.8-1.3-0.1-1.8c-0.2-0.2-0.1,0.4-0.4,0.2c0-0.3,0.5-0.7,0.5-0.8
						c0.2-0.5-0.5-0.4-0.4-0.9c-0.1,0.1-0.4,0.1-0.6-0.2c0-0.3,0.5-0.4,0.6-0.2c0,0.1,0,0.1-0.1,0.1c0,0.1,0.1,0.2,0.2,0.1l-0.1,0
						c0.1-0.2,0.1-0.6,0.3-0.5c-0.1-0.2-0.2-0.1-0.3,0.1c0.1-0.4,0-0.7,0-1.1c-0.1,0.1-0.2,0.1-0.2,0.1c0.1-0.7-0.2-0.3-0.3-0.7
						c0.1-0.1,0.2-0.1,0.3-0.1c0.1,0,0.1,0,0-0.3c0.1-0.4,0.3-0.2,0.4,0c-0.1-0.3-0.1-0.6-0.1-0.9c0-0.2,0.1-0.3,0.1-0.5
						c0-0.1,0-0.2,0-0.2c0,0-0.1-0.1-0.1-0.1c0,0,0.1,0,0.2,0.1c0,0.1,0.1,0.2,0.1,0.2c0-0.3-0.3-0.3-0.4-0.4l0,0.3
						c-0.2-0.1-0.3-0.2-0.2-0.3c-0.3,0-0.2,0.4-0.7,0.4c-0.1-0.2-0.7-0.2-0.6-0.5c0.3,0.2,0.3,0.1,0.4,0c0-0.1,0-0.2,0.4-0.1
						c-0.2,0-0.3-0.1-0.5-0.2c0,0,0.1,0,0.1,0c-0.5-0.5-0.4,0.2-0.9,0c0.1-0.1,0-0.4-0.1-0.4c0.2,0.1,0,0.3-0.3,0.4
						c-0.3-0.3-0.4,0-0.5-0.1l0.2,0.1c-0.1,0.1-0.3,0.1-0.5,0c0-0.1,0.2,0,0.2-0.1c-0.3,0.2-0.4-0.5-0.9-0.4c-0.1-0.2,0.1-0.3,0-0.4
						c-0.5,0.1-0.3-0.4-0.8-0.3c0,0.3,0.1,0.2-0.3,0.3l0.7,0.1l-0.5,0.2c0.2,0.1,0.5,0,0.6,0.1c-0.3,0.1-0.2,0.1-0.2,0.3
						c-0.2-0.4-0.6,0-0.8-0.3l0.2-0.6c-0.4-0.4-0.9,0-1.5-0.3l0.2,0.1c-0.1,0.2-0.4-0.1-0.6,0c0.1-0.2-0.1-0.3-0.1-0.4
						c0,0.1-0.5-0.1-0.6,0.3l-0.2-0.3c-0.5-0.2-0.7,0.4-1.2,0.3c0.2-0.2,0-0.4,0.3-0.5c-0.2,0-0.3-0.1-0.3,0c-0.1-0.1-0.5,0.2-0.6,0
						c-0.1,0.1-0.1,0.3-0.3,0.2c0,0,0-0.1,0-0.1c0,0.1-0.3,0.1-0.2,0.3c-0.4-0.7-1.4-0.1-1.8-0.7c-0.4,0-0.8,0.1-1.2,0.1
						c0-0.1,0-0.1,0.1-0.1c-0.5-0.2-0.3,0.5-0.8,0.3c-0.3-0.3,0.3-0.2,0.1-0.3c-0.1-0.6-0.6,0.1-1-0.3l0.1,0
						c-0.3-0.2-0.7,0.3-1.1,0.3c0,0,0-0.1,0-0.1c-0.3,0.4-0.8,0.5-1.2,0.7c0.1-0.3,0.2-0.2,0.1-0.4c-0.2,0.1,0.1,0.4-0.3,0.5
						c-0.1-0.1-0.4-0.2-0.5-0.5l0.4-0.1c-0.2-0.3-0.5,0.1-0.7,0.1l0-0.2c-0.5,0.2-0.5,0.5-1,0.7l0.1,0.1c-0.2,0.5-0.3-0.1-0.6,0.2
						l-0.2-0.3c-0.2,0.2-0.6,0.6-0.9,0.8c0.1-0.4,0.5-0.6,0.7-0.9c-0.2,0.1-0.7,0.3-0.7,0.5c0.1-0.1,0.1-0.2,0.2-0.2
						c-0.2,0.4-0.4,0.6-0.8,0.8c-0.2-0.8-1.1,0.3-1.6-0.1c-0.5,0.6-1.4,0.6-2.2,1.1c0.6,0.3-0.2,0.2,0.2,0.6
						c-0.1,0.1-0.2,0.2-0.3,0.2c0,0-0.2,0-0.4,0c-0.2,0-0.4,0-0.4,0c-0.2-0.1,0.1-0.2,0-0.3c-0.4,0.2-0.3-0.1-0.7,0
						c0.2,0.1,0.1,0.3-0.2,0.5l0.5,0c-0.3,0.7-0.8,0-1.1,0.7l0-0.3c-0.2,0.3-0.9,0.9-0.8,1.5c-0.1,0-0.3-0.1-0.2-0.2
						c-0.6,0.6-0.7,1.7-1.3,2l-0.1-0.1c0,0.2,0.1,0.4-0.1,0.4c0,0-0.1-0.1-0.1-0.1c0,0.1,0,0.5-0.2,0.6l-0.1-0.2
						c-0.6,0.6-0.2,1.3-0.4,1.9c-0.4-0.2-0.8,0.4-0.9,0.6l-0.1,0c-0.3,0.9-0.1,1.7,0,2.5c-0.6,0.5-0.4,1.8-0.5,2.7
						c0.1-0.1,0.3,0,0.4,0.1c-0.1,0.2,0.4,0.5,0,0.5l0-0.1c-0.4,0.2-0.2,0.6-0.2,0.9l0.5-0.1c-0.3,0.5-0.1,1,0.1,1.5
						c0.2,0.5,0.5,0.8,0.2,1.2c0.2,0.1,0.3,0.4,0.5,0.5l-0.3,0.1c0.1,0.5,0.2,0.8,0.6,1.4l-0.2,0c0.2,0.4,1,0.1,1.1,0.4l-0.3,0.3
						c0.3,0.6,0.4,1.4,1.2,1.7c-0.1,0-0.2,0.1-0.2,0c0.2,0.3,0.6,1.2,1,0.7c-0.3,0.3,0.5,0.5,0.9,0.6l-0.2,0.2
						c0.5-0.1,0.5-0.1,0.9,0.1c0.1,0.1-0.1,0.2-0.1,0.1c0.2,0.3,0.4-0.1,0.6,0.3l-0.2,0.1c0.3,0.2,0.3,0.1,0.6,0.1
						c0.2,0,0.5,0.4,0.4,0.6c0.1-0.1,0.4-0.2,0.5,0c0,0.1-0.1,0.1-0.2,0.1c0.4,0.4,0.9,0.1,1.2,0.5c0,0.1,0,0.1,0,0.2
						c-0.4-0.2-0.8-0.3-0.7-0.3c-0.1,0.2,0.2,0.4-0.2,0.6c0.4,0,1-0.2,1.3,0c0,0,0,0.1,0,0.1l0,0c0.1,0.1,0.2,0.1,0.2,0
						c0.1,0.1,0.2,0.1,0.3,0.2c0,0.2,0.4,0.2,0.6,0.3c0.1-0.3,0.3-0.2,0.1-0.5c0,0,0,0-0.2,0c0,0-0.1,0-0.1,0l0,0
						c-0.1,0-0.3-0.1-0.4-0.1c0.2-0.1,0.4-0.2,0.5,0c0.1-0.2,0.3-0.3,0.4-0.4c0.1,0.4,0.6,0.8,0.6,1c0.6,0,1.3,0.2,1.7-0.3
						c0.2,0,0.1,0.2,0.2,0.3c-0.1,0-0.2,0-0.3,0.1c0.3-0.1,0.9,0.1,1-0.2c0.4,0.2-0.3,0.3,0.3,0.3l-0.1,0.1c1,0.8,1.8-0.7,2.9,0.2
						c-0.1-0.1-0.1-0.1-0.1-0.1c1.3,0.4,2.7-0.2,4.1,0.1c0.4,0.1,0.4-0.2,0.6-0.4l0.1,0.3l0.3-0.4c0.5-0.4,1.1,0.5,1.7-0.1l-0.1-0.2
						c0.3,0,0.7-0.3,0.8-0.1c0,0,0-0.2,0.1-0.2l0.1,0.1l0.5-0.5c0.5-0.1,0.1,0.6,0.8,0.4c0.2-0.2,0.5-0.7,0.4-0.8
						c-0.1,0-0.3,0-0.4-0.1l0.2-0.2c-0.1-0.4-0.2-0.9-0.8-1l-0.2,0.4l-0.2-0.2l0.3-0.1c-0.2-0.1-0.3,0.1-0.3,0.3
						c-0.1-0.1-0.1-0.2-0.2-0.2l-0.2,0.5c-0.1-0.2,0-0.4-0.2-0.4c-0.1,0.3,0.3,0.3,0.1,0.6c-0.2-0.1-0.2-0.3-0.4-0.1
						c-0.1-0.1,0-0.2,0-0.3c-0.1,0.2-0.5,0.2-0.5,0.5c-0.2-0.2-0.6,0.2-0.7-0.2c0,0.1-0.2,0.4-0.4,0.5c0.2-0.6-0.6,0.1-0.7-0.5
						c-0.1,0.5-0.8,0.3-1.2,0.6c0,0,0.1-0.1,0.1-0.1c-0.2,0-0.3-0.1-0.5-0.2c0,0.4-0.4,0.5-0.5,0.8c-0.3-0.4,0.2-0.5,0-0.8
						c0,0.3-0.5,0.3-0.4,0.6c-0.2-0.2-0.2-0.1-0.3-0.4c0,0.5-0.2,0.1-0.4,0.4c-0.3-0.2-0.1-0.5-0.4-0.3
						C490.3,170.6,490.6,170.5,490.6,170.5z M482.3,169.9L482.3,169.9c0.1,0,0.1,0,0.2,0C482.5,169.9,482.4,169.9,482.3,169.9z
						 M481.7,169.7c0.1,0,0.2,0.1,0.3,0.1c0,0.1-0.1,0.2-0.1,0.2C481.9,169.9,481.8,169.8,481.7,169.7z M482.5,172
						c-0.1,0-0.2-0.1-0.2-0.1C482.4,171.9,482.5,171.9,482.5,172l0.1-0.1C482.6,172,482.6,172,482.5,172z"/>
					<path class="st1" d="M482.8,171.7C482.9,171.7,482.9,171.7,482.8,171.7C482.9,171.7,482.9,171.7,482.8,171.7L482.8,171.7
						L482.8,171.7z"/>
					<path class="st1" d="M505.2,159.3L505.2,159.3C505.2,159.3,505.2,159.4,505.2,159.3C505.2,159.3,505.2,159.3,505.2,159.3z"/>
					<polygon class="st1" points="476.2,162.6 476.1,162.6 476.2,162.6 					"/>
					<path class="st1" d="M504.4,163.4C504.4,163.4,504.3,163.4,504.4,163.4C504.3,163.4,504.4,163.4,504.4,163.4z"/>
					<path class="st1" d="M504.4,165.1l-0.1,0.1C504.3,165.2,504.4,165.1,504.4,165.1z"/>
					<path class="st1" d="M504,165.7C504,165.8,504,165.8,504,165.7L504,165.7L504,165.7z"/>
					<path class="st1" d="M501.6,147.7C501.5,147.7,501.5,147.7,501.6,147.7C501.4,147.7,501.5,147.7,501.6,147.7z"/>
					<path class="st1" d="M504,151.6c-0.1-0.1-0.1-0.1-0.1-0.2C503.8,151.5,503.8,151.6,504,151.6z"/>
					<polygon class="st1" points="494.9,146.3 494.9,146.3 494.9,146.3 					"/>
					<path class="st1" d="M503.8,151.1c0,0.1,0,0.2,0,0.3C503.8,151.3,503.8,151.2,503.8,151.1z"/>
					<path class="st1" d="M499.5,169L499.5,169C499.5,169,499.5,169.1,499.5,169L499.5,169z"/>
					<path class="st1" d="M499.5,169.1L499.5,169.1C499.5,169.1,499.5,169.1,499.5,169.1z"/>
					<path class="st1" d="M499.4,169.3l0.1-0.1C499.4,169.1,499.3,169.2,499.4,169.3z"/>
					<path class="st1" d="M501,168.2L501,168.2C501,168.2,501,168.2,501,168.2z"/>
					<path class="st1" d="M501.5,167.9c-0.1,0.1-0.4,0-0.5,0.1l0,0.1C501,168,501.5,168.1,501.5,167.9z"/>
					<path class="st1" d="M504,167.5l-0.4,0.2c0.1,0,0.3,0.1,0.2,0.2C504.4,167.8,503.5,167.8,504,167.5z"/>
					<path class="st1" d="M505.1,166.5c-0.2,0.3,0.1,0.1,0.2,0.1C505.4,166.5,505.4,166.4,505.1,166.5z"/>
					<path class="st1" d="M505.3,156.2l0.3,0C505.5,156,505.5,156.2,505.3,156.2z"/>
					<polygon class="st1" points="503.9,154.3 503.7,154.5 504,154.6 					"/>
					<polygon class="st1" points="505.6,153.1 505.7,153.2 505.6,152.9 					"/>
					<path class="st1" d="M493.3,143.6l0,0.3C493.5,143.9,493.5,143.6,493.3,143.6z"/>
					<path class="st1" d="M485.8,144.4c-0.1-0.1-0.4-0.2-0.4,0C485.5,144.4,485.7,144.5,485.8,144.4z"/>
					<polygon class="st1" points="473.2,161.4 473.1,161.3 473.2,161.6 					"/>
				</g>
			</g>
		</g>
		<g>
			<g>
				<g>
					<path class="st1" d="M515.7,173.5c-0.2,0-0.2,0.2,0.1,0.4l0.4-0.1c0,0-0.1-0.1-0.3-0.1C515.8,173.6,515.7,173.5,515.7,173.5z"
						/>
					<path class="st1" d="M517.8,175.4c0.3,0,0.5,0,0.8-0.1c0.2-0.1,0.4-0.2,0.3-0.4c-0.2,0-0.4,0-0.5,0c-0.1,0-0.2,0-0.3,0
						c-0.2,0-0.3,0-0.6,0.1c-0.4-0.1-0.6-0.4-0.5-0.5c-0.2,0-0.5-0.4-0.8-0.3c0.3,0.5,1,0.9,1.7,0.9
						C518,175.3,517.9,175.3,517.8,175.4z"/>
					<path class="st1" d="M487.8,179l0.3,0C488,179,487.9,179,487.8,179z"/>
					<path class="st1" d="M466.7,167.3c0.1,0.2,0.2,0.2,0.2,0.2C466.8,167.4,466.7,167.3,466.7,167.3z"/>
					<path class="st1" d="M465.8,163.1c0,0.1,0,0.2,0,0.3C465.8,163.3,465.8,163.2,465.8,163.1z"/>
					<path class="st1" d="M487.8,179l-0.7-0.1C487.1,179.1,487.5,179.1,487.8,179z"/>
					<path class="st1" d="M519.6,178.8c0.2-0.2,0.3-0.3,0.3-0.5C519.9,178.5,519.8,178.6,519.6,178.8
						C519.6,178.8,519.6,178.8,519.6,178.8z"/>
					<path class="st1" d="M498.8,175.8l0.2-0.1c0-0.1,0.1-0.1,0.1-0.2L498.8,175.8z"/>
					<path class="st1" d="M506.9,171.1c-0.1-0.1-0.2-0.1-0.2,0c-0.1,0.2-0.1,0.3-0.2,0.4c0-0.1,0.1-0.2,0.1-0.2
						c0.1,0,0.2,0.1,0.3,0.2C506.9,171.4,506.9,171.3,506.9,171.1z"/>
					<path class="st1" d="M517.3,179.2l0.2-0.1C517.4,179.1,517.4,179.2,517.3,179.2z"/>
					<path class="st1" d="M492.8,177.7c0,0-0.1-0.1-0.1-0.1C492.7,177.7,492.7,177.7,492.8,177.7z"/>
					<path class="st1" d="M512.9,164.5C512.8,164.4,512.8,164.5,512.9,164.5C512.8,164.5,512.9,164.5,512.9,164.5z"/>
					<path class="st1" d="M515.2,174.1l-0.1-0.1c0,0-0.1,0.1-0.1,0.1L515.2,174.1z"/>
					<path class="st1" d="M466.4,155.5C466.4,155.5,466.4,155.5,466.4,155.5C466.3,155.7,466.4,155.6,466.4,155.5z"/>
					<path class="st1" d="M494.4,118.1c0.8,0.4-1.5,0-0.2,0.6C494,118.5,495.4,118.5,494.4,118.1z"/>
					<path class="st1" d="M519.4,179c-0.1,0.1-0.2,0.2-0.3,0.3C519.3,179.1,519.3,179.1,519.4,179z"/>
					<path class="st1" d="M494.1,118.6L494.1,118.6l0.1,0.1C494.2,118.6,494.2,118.6,494.1,118.6z"/>
					<path class="st1" d="M477,141.6c-0.1,0-0.1,0-0.2,0C476.8,141.6,476.8,141.6,477,141.6z"/>
					<path class="st1" d="M467.4,151l0.2-0.3C467.6,150.8,467.5,150.9,467.4,151z"/>
					<path class="st1" d="M483.5,139.1c0.2,0,0.3,0,0.5,0c0,0,0,0-0.1,0C483.8,139,483.7,139.1,483.5,139.1z"/>
					<path class="st1" d="M490.8,139.2c0,0-0.1-0.1-0.1-0.1c-0.1,0-0.2,0-0.2,0L490.8,139.2z"/>
					<path class="st1" d="M511.9,141.5c-0.1,0.2-0.2,0.3-0.3,0.3C511.8,141.8,511.8,142.9,511.9,141.5z"/>
					<path class="st1" d="M519.5,178.7c0,0.1-0.1,0.2-0.1,0.3c0.1-0.1,0.2-0.2,0.2-0.2C519.6,178.7,519.6,178.7,519.5,178.7z"/>
					<path class="st1" d="M483.5,136.8c0,0,0.3,0,0.6-0.1c0.3,0,0.7,0,0.7,0C484.4,136.7,483.9,136.8,483.5,136.8z"/>
					<path class="st1" d="M477.3,113.3l0.2-0.2C477.4,113.2,477.3,113.2,477.3,113.3z"/>
					<path class="st1" d="M488.6,136.8c0.2,0.1,0.5,0.2,0.7,0.3c0.1,0,0.1,0,0.2-0.1L488.6,136.8z"/>
					<path class="st1" d="M511.6,141.9L511.6,141.9L511.6,141.9z"/>
					<path class="st1" d="M512.1,149.8c0-1.1-0.4-0.5-0.6-0.8c-0.1-1.4,0.3-0.6,0.5-1.1c-0.1-0.9-0.4-1.5-0.4-2.1
						c0.1,0,0.1-0.2,0.2,0c-0.1-0.4-0.1-1.2-0.1-1.8c0-0.6,0.1-1.4-0.1-1.9c0-0.1,0.1-0.1,0.1-0.1c-0.2,0.2-0.4,0.2-0.5,0.1
						c0-0.5-0.2-1,0.1-1.2c0,0.3,0.1,0.4,0.1,0.5l-0.1-0.6c0.4-0.5,0.1,0.8,0.3,0.8c-0.1-1.1-0.3-2.3-0.2-3.1
						c0.4-0.2,0.1,1.9,0.4,0.8l-0.2,1.3c0.6-0.9-0.1,0.8,0.5-0.1c0.2-1.7-0.1-1.9,0-3.6c-0.2-0.4-0.3,0.1-0.5-0.2
						c-0.4-2.4,0.8-1.9,0.3-3.6c-0.3-0.4-0.7-0.6-0.6-1.8l0.4,0.4c-0.1-1.6-0.6-0.9-0.6-2.6c0.2,0.3,0.3,1.3,0.3,1
						c0.1-1.1-0.3-0.8-0.5-1.6l0.3-0.2c-0.4-1.8-1.1-3.5-1.7-5.4c0.1,0.1,0.3,0.4,0.3-0.1c-0.5-1.2-1-2.4-1.7-3.6
						c-0.7-1.2-1.5-2.3-2.3-3.2c0,0-0.2-0.1-0.5-0.2c-0.2-0.1-0.5-0.2-0.5-0.2c-0.2-0.1-0.2-0.4,0-0.3c-0.7-0.7-0.2,0.1-0.6-0.1
						c-0.4-0.3-0.5-0.6-0.1-0.4c-0.8-0.4-1.8-0.9-2.9-1.4c-1.1-0.5-2.2-0.9-3-1.3l0.3,0c-1.2-0.5-1.6,0.1-2.7-0.5l0.2,0
						c-1.4-0.4-2.9-0.6-4.4-0.7c-1.4-0.1-2.8-0.1-3.9-0.2c-0.4,0.4-2.8,0.2-2.9,0.8c-1.7,0-1.2-0.3-3.6,0.1
						c-0.6,0.1-0.8,0.6-1.5,0.9l-0.1-0.3c0,0-0.2,0.2-0.4,0.3c-0.2,0.2-0.4,0.3-0.4,0.3l-0.7-0.1l-0.6,0.4c0.3-0.1,0.6-0.1,0.6,0
						c-1,0.6-2.6,1.1-2.7,1c0,0-0.6,0.4-1.1,0.9c-0.5,0.4-1,0.9-1,0.9c0-0.1,0.3-0.4,0.5-0.7c-1,1.1-0.4-0.1-1.3,1
						c0.2-0.1,0,0.2,0.1,0.3c-0.6,0.3-1.7,1.3-2.4,2.2l0-0.3c-1.4,1.5-2.6,3.4-3.7,5.4c0.5-0.7,0.7-0.3,0.4,0.3l-0.4,0.1
						c0,0.5,0.4-0.6,0.2,0.3c-0.4,0.7-0.6,0.3-0.5-0.1c0,0-0.1,0.2-0.2,0.5c-0.1,0.2-0.2,0.5-0.2,0.5c-0.1,0-0.1-0.2-0.1-0.3
						c0,0.2-0.3,0.6-0.5,1c-0.1,0.1-0.1,0.2-0.2,0.3c-0.1,0.1-0.1,0.2-0.2,0.4c-0.1,0.4-0.2,0.7-0.2,1l-0.1,0.1
						c-0.2,0.6-0.4,1.2-0.5,1.5c0.8,0.3,1.6,0.6,2.2,0.9c0.2,0.1,0.3,0.2,0.5,0.3c0,0,0.2,0.1,0.4,0.2l0.4,0.3c0.5,0,1-0.1,1.5-0.1
						c0.1-0.2,0.1-0.3,0.2-0.5c0,0,0-0.2,0.1,0.3c0,0.1,0,0.1,0,0.1l0,0l0,0l0,0l0.1,0c0.1,0,0.2-0.1,0.4-0.1c0-0.1,0.4-0.3,0.5-0.4
						l0.8-0.6l-0.1-0.3c0-0.2,0-0.3-0.1-0.6c0.1-0.2,0.2-0.4,0.4-0.5c0.3-0.2,0.5-0.5,0.8-0.7c0.3-0.2,0.6-0.5,0.8-0.8l0.4-0.4
						l0.4-0.4c0.1-0.2,0.2-0.3,0.1-0.4c0-0.1-0.1-0.1,0-0.2c0.1,0.1,0.3,0.1,0.5,0.1c0.1,0,0.4,0,0.4,0.1c0.1,0-0.1,0.1-0.3,0.1
						c0.4,0,0.9,0,1,0c0.2-0.3,0.4-0.5,0.5-0.7c0.1-0.1,0.2-0.2,0.2-0.3l0.1-0.1c0.2-0.2,0.3-0.4,0.5-0.6c0.2-0.2,0.4-0.4,0.6-0.6
						c0.1-0.1,0.3-0.2,0.4-0.3c0.1,0,0.1-0.1,0.2-0.2c0.1-0.1,0.1-0.1,0.4-0.2c-0.3,0.1-0.3,0.1-0.4,0.1c-0.1,0-0.1,0-0.1-0.1
						c0.1-0.1,0.5-0.2,0.7-0.4c0.2-0.1,0.3-0.1,0.3,0l-0.1,0.1c0.4-0.4,1-0.8,1.6-1c0.7-0.2,1.4-0.4,2.1-0.6l0.5-0.1l0.3-0.1
						c0.1,0,0.1,0,0.3-0.1c0.4-0.2,0.4-0.2,0.5-0.2c0.1-0.1,0.3-0.1,0.4-0.2c0.5-0.2,1-0.3,1.4-0.5l-0.1,0c0,0,0.4-0.1,0.9-0.2
						c0.5-0.1,0.9-0.1,0.9-0.1c0.8,0.2-0.5,0.1,0.1,0.4c0.2,0,0.5,0,0.7,0c0.1,0,0.2,0,0.3,0.1c0.1,0,0.2,0,0.4,0.1
						c0.2,0,0.3,0.2,0.5,0.2c0.2,0,0.3,0,0.5,0c0.2,0,0.4,0,0.6,0c0.8,0.1,1.6,0.2,2.5,0.3c0.6,0.5,1.8,0.8,3,1.3
						c1.2,0.5,2.4,1.1,2.9,1.9l0-0.2c0.5,0.2,0.4,0.4,0.6,0.7c0.1-0.1-0.2-0.5,0-0.3c0.7,0.7,1.4,1.5,1.8,2.4c0.4,0.9,0.6,1.9,0.8,3
						c0.1,1.1,0.1,2.2,0.1,3.4c0,1.2,0,2.3,0,3.4c0,1.6,0.9,0.9,0.4,3L503,138c0,0.3,0,0.6,0,1l0,0.5l0,0.2c0,0,0,0,0,0.1
						c0,0.1,0,0.3,0,0.4c0.3,0.1-2.6-1.1-4.4-1.2c0.2,0,0.2-0.1,0.6,0c-0.6-0.4-2.6-0.6-2.6-0.4c-0.5-0.1-0.1-0.2-0.4-0.4
						c-0.7-0.3-1.8-0.1-2.1-0.4c-0.1-0.1,0.2,0,0.3,0c-0.5,0-2.1-0.5-1.7-0.1c-1.2-0.4-2.4-0.3-3.4-0.6c-0.7,0.2-2.2-0.3-2.4,0.2
						c0.1-0.5-2.2-0.4-3.1,0c0.3-0.2-0.7-0.1-0.4-0.3c-0.9,0.1-1.8,0.4-1.6,0.6c-0.9-0.1-1.7,0.3-2.4,0.6c-0.7,0.3-1.3,0.7-1.9,0.5
						c-2.5,1.4-4.5,3-6.2,4.8c-0.1-0.2,0.4-0.7,0.8-1.1c0.5-0.5,1-0.9,0.8-1c-0.9,0.8-1.5,1.6-2.1,2.3l-0.2,0.3
						c0,0.1-0.1,0.1-0.1,0.1c0,0-0.1,0.1-0.1,0.1c-0.2,0.2-0.3,0.4-0.5,0.5c-0.3,0.4-0.7,0.7-1.1,1.2c-0.4,0.4,0.1-0.4,0.2-0.6
						c-1.4,1.9-2.8,3.6-3.5,5.7c0,0,0-0.2,0.1-0.5c-0.2,0.4-0.5,0.8-0.3,0.9l0.1-0.4c0.5-0.5-0.1,1.7,0.1,1.9
						c-0.2-0.4-0.4,0-0.6,0.4c-0.2,0.4-0.4,0.8-0.6,0.1c0,0.3-0.1,0.6,0.1,0.6c-0.1,0.4-0.3,0.5-0.3,0c-0.3,1.5,0.1,1-0.2,2.3
						c-0.1,0-0.1-0.3-0.2-0.5c0.1,0.7,0.1,1.4,0,2.5c-0.1-0.1-0.1,0.1-0.1-0.3c-0.1,2,0.4,3.3,0.6,5.4c-0.5-0.5,0,0.7-0.3,0.9
						c0,0,0.1,0.3,0.2,0.5c0.1,0.3,0.2,0.5,0.2,0.5l0.1-0.5c0.3,1,0.8,1.7,1,2.5l-0.4-0.6c0,0,0.2,0.4,0.4,0.9
						c0.2,0.4,0.4,0.8,0.4,0.8s-0.1-0.3-0.2-0.5c-0.1-0.3-0.2-0.5-0.2-0.5c0.6,0.8,0.4-0.3,0.9,0.9c-0.1-0.1,0,0.1,0.2,0.4
						c0.2,0.3,0.3,0.7,0.4,1l0,0c0.4,0.3,0.7,0.7,1.1,1.3c0,0.2-0.4,0.1-0.4,0.3c0.5,0.2,1.6,1.8,2.2,1.9c-0.2-0.1-0.3,0-0.3,0.1
						l0.5,0.1c0.3,0.4,0.3,0.4,0.1,0.5c1,0.9,0-0.6,1.1,0.6c-0.1-0.1-0.1,0-0.3-0.1c1.2,1.1,2.6,1.7,3.9,2.6
						c0.2,0.6-1.2-0.6-0.9-0.1c1.9,1.1,4.2,1.6,6.2,2.2l-0.4-0.1c0.4-0.4,1.4,0.7,2.6,0.6c-0.3,0-0.4,0.2-0.3,0.2
						c1.4,0.3,3,0.3,5.1,0l-0.3,0.1c0.9,0.1,2.2-0.1,3.2-0.2c0.2-0.2,0.8-0.3,0.4-0.4c1.5,0.1,2.7-0.4,3.9-0.8
						c1.2-0.5,2.3-1,3.6-1.1c-0.3,0.1-0.6,0.4-0.4,0.3c0,0,0.5-0.2,1-0.4c0.5-0.2,1-0.5,1-0.5c-0.2-0.1-0.3,0-0.8,0
						c0.2-0.2,0.7-0.6,1.2-0.8c-0.8,0.5,0.2,0.3,0.6,0.3c-0.1,0,0-0.2-0.1-0.2c1.2-0.1,0-0.5,1.4-0.9l0,0.1c0.5-0.3,0.8-0.7,1.4-1
						c0.4,0.1-0.4,0.4-0.4,0.6c0.7-0.4,1.2-1.3,1.9-1.5c-0.3,0.3-0.7,0.5-1,0.8c0.9-0.2,0.9-0.3,1.5-0.6l-0.1,0c0,0,0.1,0,0.2-0.1
						c0.1,0,0.1-0.1,0.2-0.1c0,0,0.1,0,0.1-0.1c0.2-0.1,0.3-0.2,0.3-0.2l-0.2,0c0.1-0.4,0.4-0.7,0.6-0.9c0.2,0.2,0.3,0.5,0.5,0.8
						c0.1,0.1,0.2,0.3,0.3,0.4c0.1,0.2,0.3,0.3,0.5,0.5c-1.1-0.9-0.3-0.1-0.6,0c0.1,0.4,0.3,0.9,0.2,0.8c0.1,0.1,0.2,0.2,0.3,0.4
						c0.1,0.1,0.1,0.2,0.2,0.5c0.2,0.2,0.2,0.3,0.4,0.5c0.1,0.1,0.3,0.3,0.6,0.4c0,0.1,0.5,0.5,0.3,0.6c0.7,0.6-0.1-0.3,0.1-0.3
						c0.6,0.4,1.2,1,1.9,1.5c0.7,0.6,1.4,1.2,2.5,1.5c0.9,0.3,1.4,0.3,2,0.2c0.5-0.1,1-0.2,1.7-0.6c0.6-0.1-0.3,0.5-0.3,0.5
						c0.9-0.1,1.5-0.6,2-1.2c-0.1,0.2,0.1,0.1,0.4,0c0.3-0.2,0.3-0.4,0.4-0.6c0.1-0.2,0.1-0.3,0.5-0.7c0,0.2,0.1,0.4-0.2,0.8
						c0.7-0.9,0.9-1.6,1.3-2.4c0.4-0.3,0.1,0.4,0,0.7c0.1-0.2,0.2-0.5,0.4-0.7l0.1-0.2c0-0.1,0.1-0.1,0-0.2
						c-0.1-0.1-0.1-0.1-0.2-0.2c-1,0-1.8,0-2.1,0.1l0.6,0.2c-0.4,0,0.1-0.2,0.5-0.2c0.4,0,0.7,0,0.9,0c0,0.1,0,0.2,0,0.3
						c-0.1,0.1-0.2,0.2-0.3,0.2c0,0,0.1-0.2,0-0.2c-0.1,0-0.2-0.1-0.2-0.1c-0.1,0.1-0.1,0.1-0.1,0.2c0,0,0.1,0,0,0.1
						c0,0.1-0.1,0.1-0.1,0.2c-0.2,0.2-0.3,0.5-0.4,0.7c-0.2,0.5-0.6,1.2-1.1,1.7c0,0,0.1-0.6,0-0.6c0,0-0.6,1-0.6,1
						c-0.3,0.1-0.5,0-0.2-0.4c-0.7,0.3-0.4,0.6-1.1,0.7c-0.1,0-0.1,0,0-0.1c0,0-0.6,0.4-0.6,0.4c0.1-0.1-0.2-0.2,0.2-0.3
						c-0.6,0.1-1.1,0.2-1.5,0.2c-0.4,0-0.8,0-0.9-0.3l0.1,0c-0.9-0.3-0.9-0.3-1-0.2c0,0.1,0,0.3-0.8,0c0,0-0.1-0.3-0.2-0.6
						c-0.1-0.3-0.2-0.6-0.2-0.6l-0.3,0.1c-0.2-0.1-0.5-0.4-0.3-0.4c-0.7-0.3,0,0.2-0.4,0.1c-0.6-0.7-2.1-1.6-1.9-2.1
						c-0.4-0.1,0.5,0.8-0.3,0.2c0.1-0.3-0.1-0.5-0.4-0.7c-0.2-0.3-0.6-0.6-0.7-1c0.4,0.1,0.7,0.9,0.4,0c-0.3-0.1-0.5-0.4-0.7-0.9
						c-0.2-0.5-0.5-1.2-0.8-1.6c0,0.1-0.1,0-0.3-0.1c-0.3,0.3-0.7,0.6-1.1,0.9c-0.2,0.2-0.4,0.3-0.7,0.5c-0.2,0.1-0.4,0.3-0.6,0.4
						c0-0.1-2.1,1.1-3.1,1.5l0-0.1c0,0.4-1.1,0.9-1.9,1.3c-0.1-0.2,0-0.4,0.4-0.6l-0.7,0.3c-0.1,0.2-0.3,0.3-0.8,0.6l0.1-0.3
						c-1,0.4-1.9,1.1-3.3,1.3c0,0.3,1.3,0.4-0.1,1c-0.1-0.1-0.2-0.3,0.1-0.5c-0.1,0.1-0.4,0.2-0.7,0.3l0.5-0.4
						c-0.6,0.1-0.3,0.3-0.8,0.4c0-0.2-0.4,0-0.4-0.2c0.1-0.1,0.4,0,0.6-0.2c-0.6,0.1-1.3,0.2-1.5,0.1c0.1,0.1,0.1,0.3-0.3,0.4
						c-1,0.3-0.4-0.1-1-0.1c-0.2,0.2-0.9,0.2-0.9,0.5c-0.3,0.1-0.4-0.1-0.5-0.1c-0.5,0.3-2.5,0.4-1.9,0.6l0.1,0c0,0-0.1,0-0.1,0l0,0
						l0,0c-1.8,0.5-3.8,0-5.6-0.2l0-0.1c-1.1,0-2.4-0.4-3.2-0.4c-0.3-0.1-0.7-0.4-0.5-0.5c-0.8-0.2-0.9-0.1-2-0.7
						c0.8,0.2-0.2-0.2,0.8,0.2c-1-0.5-1.1-0.7-2.2-1c0.4,0-0.5-0.6-1-0.9l0.6,0.5c-0.5-0.2-0.9-0.5-1.3-0.8l0.4-0.1
						c-0.8-0.7-1.7-1.1-2.4-1.6c-0.8-0.5-1.5-1-1.8-1.8c-0.6-0.3,0.7,1,0.1,0.8c-0.7-0.7-0.9-1.8-1.1-2.1c-0.6-1.2-1.1-0.7-1.7-2
						c0,0.2-0.2,0.5-0.8-0.4c-0.4-0.9,0-1.3,0.3-0.8c0.1,0.2,0.1,0.3,0.1,0.3c0.2,0.3,0.4,0.6,0.4,0.2l-0.2-0.1
						c-0.1-0.5-0.6-1.7-0.3-1.5c-0.4-0.6-0.3-0.2-0.2,0.3c-0.3-1.2-0.6-1.9-0.8-3.1c0,0.2-0.1,0.4-0.2,0.2c-0.2-1.9-0.4-0.8-0.6-2.1
						c0.1-0.8,0.4,0.2,0.2-1.1c0.1-0.8,0.3-0.2,0.4,0.1c-0.3-1.2,0.2-2.2,0.3-2.8l0,0.6c0-0.4,0-0.7,0-1l-0.3,0.3
						c0.1-0.4,0.1-0.6,0.2-0.6c-0.1-0.4-0.4,0.2-0.5-0.5c0.2-0.5,0.2-1.5,0.5-1.6c-0.5,1.5,0.3-0.1,0.1,1.2c0-0.2,0.1-0.5,0.2-0.9
						c0,0,0.1,0.1,0,0.2c0.6-1.3-0.2-0.7,0.3-2.2c0.1,0.2,0.4-0.2,0.5-0.4c-0.2,0.6-0.4,0.2-0.3-0.4c0.5-0.8,0.3-1,0.6-1.5l-0.3,0.5
						c-0.1-0.3,0.2-0.7,0.5-1.3c0.1,0-0.2,0.6,0,0.4c0.1-0.8,1.1-1.3,1.6-2.3c0.4-0.3,0.3,0.2,0.6-0.1c0.5-1.1,1-0.8,1.6-1.8
						c-0.4,0.1-0.4,0.2,0-0.6c0,0-0.3,0.4-0.6,0.8c-0.3,0.4-0.6,0.8-0.6,0.8s0.1-0.3,0.3-0.6c0.2-0.3,0.3-0.6,0.3-0.6
						c-0.4,0.4-0.8,1.1-1,1.3c0.2-0.6,0.3-0.5-0.1-0.4c0.8-0.4,1-1.4,1.9-1.9l0.4,0.5c0,0,0.2-0.2,0.3-0.2l0.2-0.2
						c0.1-0.1,0.2-0.2,0.4-0.4c0.2-0.2,0.4-0.5,0.7-0.8c0.5-0.5,1-1.1,1.8-1.6l-0.6,0.3c0.1-0.3,0.9-0.7,1.4-1.1
						c0.1,0.2,0.4,0.1,0.7,0c-0.1-0.1,1.2-0.6,1.2-1c0,0,0.2,0,0.4-0.1c0.2,0,0.4,0,0.4,0c1.5-0.4,1.5-1.1,3-1.4
						c-0.4,0.3,0.3,0.3-0.6,0.7c0.5-0.1,0.9-0.2,0.9-0.3c0.3,0.1,1.3-0.5,1.8-0.4c0.2-0.1,0.2-0.3,0.8-0.4c0.1,0,0,0.1,0,0.1
						c0-0.1,0.9-0.2,0.4-0.4c0.8,0.3,1.9,0.3,2.9,0.3c1.1,0,2.1,0.1,2.7,0.5c1.1,0.1,2.4,0.3,3.4,0.5c-0.1,0,0,0.1-0.2,0
						c1.3,0.5,1-0.4,2.5,0.2c0.7,0.5-0.9,0-0.4,0.2c0.1,0.7,1.9,0.4,2.8,1l-0.3,0c0.7,0.4,2,0.3,3.2,0.8c0,0-0.1,0,0,0.1
						c0.3,0,0.8,0.1,1.3,0.3c0.5,0.1,1,0.3,1.5,0.5c0.1-0.3,0.1-0.8,0.1-1.1c0-0.4,0-0.7,0-1c0.2,0.6,0.1,0.8,0.3,0.6
						c0-0.4-0.1-0.4-0.2-0.5c-0.1-0.1-0.2-0.3-0.2-0.9c0.2-0.4,0.3-1.2,0.6-1.3l0,1.1c0.4-0.5,0.1-1.4,0.1-2l0.2,0.1
						c0-1.7-0.4-1.7-0.5-3.5l-0.1,0.2c-0.4-1,0.2-0.8-0.2-1.8l0.4-0.3c-0.1-0.6-0.5-2.3-0.8-3.4c0.4,0.6,0.7,2,0.9,2.8
						c0-0.6-0.2-2.2-0.5-2.5c0.1,0.3,0.2,0.6,0.2,0.8c-0.4-0.8-0.7-1.8-1-3.1c0.4,0,0.2-0.9-0.2-1.8c-0.5-1-1.2-1.9-1.3-2.5
						c-1.8-1.6-3.8-3.2-6.5-4c0.8,0.9-0.8-0.2-0.8,0.4c-0.6-0.1-0.9-0.2-0.9-0.2c0,0-0.4-0.2-0.9-0.4c-0.5-0.2-0.9-0.3-0.9-0.3
						c-0.5-0.2,0.6-0.1,0.6-0.2c-1.4-0.2-0.6-0.3-1.5-0.6c0.1,0.1,0,0.2-0.3,0.2c-0.1,0-0.3,0-0.5,0c-0.1,0-0.1,0-0.2-0.1
						c0,0,0,0,0.1,0.1c0,0,0,0.1,0.1,0.1c0.3,0.1,0.6,0.1,0.6,0.1c-0.2,0-0.5,0.1-0.6,0.1c-0.1,0-0.1,0-0.2,0
						c-0.1-0.1-0.4-0.2-0.5-0.4c-0.4-0.2-0.9-0.5-2-0.5c0,0,0.2,0,0.4-0.1c0.2,0,0.4-0.1,0.4-0.1c-0.6,0-1.7-0.1-2.7,0.2
						c-1.1,0.2-2,0.8-2.3,1.2c-0.2,0-0.5,0-0.1-0.3c-0.3,0.2-1,0.4-1.5,0.7c-0.6,0.3-1.2,0.6-1.7,0.8c-0.6,0.3-1.2,0.7-1.6,1.1
						c-0.2,0.2-0.5,0.4-0.6,0.4c-0.2,0.1-0.5,0.2-0.7,0.3c0,0,0.1-0.2,0.1-0.2c-0.4,0.3-0.5,0.7-1.1,1c0-0.1,0.1-0.2-0.1-0.1
						c-0.1,0.1-0.3,0.4-0.5,0.7c-0.1,0.1-0.2,0.3-0.4,0.5c-0.1,0.1-0.1,0.1-0.2,0.2c0,0,0,0-0.1,0.1c0,0,0-0.1,0-0.1
						c0.1-0.1,0.1-0.3,0.1-0.3l-0.2,0.2l0,0l-0.1,0.1c-0.1,0,0,0-0.2,0c-0.2,0-0.5,0.1-0.8,0.3c-0.5,0.2-0.9,0.6-1.2,1
						c-0.4,0.7-0.7,1.2-1.3,1.8c-0.2-0.2-0.6,0.1-1,0.4c-0.6,0.4-1.2,1.4-1.3,2l-0.1-0.1c0,0.1-0.1,0.3-0.1,0.4l1-1.2l-0.2,0.1
						l-0.1,0c0,0,0,0,0,0l0,0l0,0l-0.2,0c-0.2,0-0.6,0.1-0.5,0.1c0,0-0.2,0-0.3,0c0,0-0.1,0-0.1,0l0,0l0,0l-0.1-0.1
						c-0.2-0.1-0.5-0.2-0.4-0.2c-0.1,0-0.2,0-0.4,0c-0.1-0.1,0-0.2,0-0.3c0-0.1,0-0.1,0-0.2c0.1-0.2,0.1-0.3,0.2-0.5
						c0.5-0.6,1.1-1.7,1.8-2.8c0.7-1.1,1.5-2.3,2.4-3.1c-0.3,0.2-0.2-0.3,0-0.6c0.4-0.4,0.8-1.3,1.1-1l-0.1,0.1c0.6,0,1.3-0.9,2-1.4
						l-0.2-0.5c1.1-0.4,2.3-1.3,3.5-2c1.2-0.7,2.3-1.2,3-1.1c0.5-0.3,1.1-0.5,1.6-0.8l0,0.3c1.5-0.3,2.2-0.4,4.2-0.7l-0.4,0.3
						c1.1-0.1,1.3-1,2.3-1.1l0.3,0.4c1.9-0.1,3.7,0.3,5.6,0.3c0,0.1-0.1,0.2-0.4,0.1c0.9,0.1,3.2,1.1,3,0.5
						c-0.1,0.3,1.9,0.7,2.8,0.9l-0.3,0.2c0.9,0,1-0.1,2.1,0.5c0.2,0.2,0.1,0.3-0.2,0.1c0.7,0.6,0.8,0.1,1.6,0.9l-0.4-0.1
						c0.8,0.6,0.7,0.5,1.3,0.7c0.6,0.3,1.3,1.4,1.2,1.6c0.2,0,0.7,0.3,1,0.8c0,0.1-0.2,0-0.3-0.1c0.8,1.4,1.6,1.9,1.8,3
						c-0.1,0.1-0.1,0.1-0.1,0.2c-0.5-1.2-1-2.1-0.9-2c-0.2,0.1,0.2,1-0.5,0.5c0.6,0.6,1.5,1.7,1.7,2.7c0,0.1,0,0.1,0,0.2l-0.1-0.1
						c0,0.2,0.1,0.4,0.2,0.6c0.1,0.3,0.1,0.5,0.2,0.8c-0.2,0.2,0.2,1.2,0.3,1.7c0.3-0.1,0.4,0.6,0.5-0.1c0,0.1-0.1-0.1-0.1-0.4
						c0-0.1-0.1-0.2-0.1-0.2l0,0c-0.1-0.3-0.2-0.8-0.4-1.3c0.2,0.4,0.5,0.8,0.5,1.4c0.2,0.2,0.5,0.5,0.6,0.6
						c-0.2,0.8-0.2,2.2-0.4,2.4c0.4,1.6,0.5,3.7,1.1,4.7c0.1,0.5-0.1,0.5-0.2,0.7c-0.1-0.3-0.1-0.6-0.2-0.7c0.2,0.9,0.1,2.7,0.5,3
						c-0.2,1.2-0.3-0.7-0.3,1l-0.1-0.2c-0.3,1.6-0.1,2.9,0,4.2c0.1,0.7,0.1,1.3,0.1,2.1c0,0.7,0,1.5-0.2,2.4c0-0.2,0.1-0.4,0.1-0.4
						c-0.4,4.1,0.4,8.3,0.2,12.4c0,1.1,0.2,1.2,0.5,1.9l-0.3,0.3l0.5,1.1c0.4,1.6-0.4,3,0.4,5l0.2-0.3c0.1,0.8,0.5,2.4,0.3,2.3
						c0.1,0.1,0.3,0.2,0.2,0.5l-0.1,0.1c0,0,0.2,0.5,0.4,0.9c0.2,0.4,0.5,0.9,0.5,0.9c0.3,0.7,0.1,0.7,0,0.8
						c-0.1,0.1-0.2,0.3,0.4,1.3c0.3,0.3,0.8,0.7,1.2,1c0.4,0.2,0.7,0.3,0.6,0.2c-0.3-0.2-0.6-0.6-0.5-0.8c0,0,0.1,0.1,0.3,0.2
						c0.1,0.1,0.3,0.2,0.3,0.2c0.2-0.1,0.5-0.2,0.6-0.4c0.1-0.2,0-0.5-0.4-1.2c0,0-0.9-0.6-0.9-0.7l0-0.4c0,0,0.1,0.2,0.2,0.4
						c0.1,0.2,0.3,0.4,0.3,0.4c-0.1-0.5-0.4-0.7-0.7-0.9c0.1-0.1,0.1-0.3,0-0.5c0,0-0.2-0.2-0.4-0.4c-0.2-0.2-0.4-0.5-0.4-0.5
						c0.1-0.2,0.5,0.4,0.4-0.4c-0.3-0.4-0.2,0.6-0.6-0.2c0.1-0.6,0.3-0.5-0.1-1.1c0.1-0.1,0.2,0,0.3,0.2c-0.3-0.5-0.4-1.5-0.6-1.8
						c0.1-0.6-0.4-2,0.1-2c-0.1-0.2-0.5-1-0.6-1.6c0.6,1-0.2-2.1,0.4-1.9c-0.6-0.7-0.5-2.7-0.8-4c0,0.1,0.1,0.2,0.1,0.3
						c0-0.8,0.1-1,0.2-1.5c-0.4-0.1-0.6-1.2-0.8-1.9c0.3-0.9,0.5,0.5,0.8,0.2c-0.3,0.1-0.4-1.6-0.6-1.3c0.2-0.7,0.1-0.6,0.4-1
						c-0.5-0.1-0.1-0.7-0.4-1.2c0.2-1,0.5-0.3,0.3-1.4C511.9,148.8,512.1,149.8,512.1,149.8z M509.5,122.8L509.5,122.8
						c0.1,0.2,0.2,0.4,0.2,0.5C509.6,123.2,509.6,123,509.5,122.8z M508.6,120.6c0.1,0.3,0.3,0.6,0.4,0.9c-0.1,0.1-0.2,0.1-0.3-0.1
						C508.8,121.5,508.7,120.9,508.6,120.6z M508.3,125.7c-0.1-0.3-0.1-0.5-0.1-0.5c0.1,0.2,0.1,0.3,0.2,0.6c0,0,0,0,0,0
						C508.4,125.8,508.4,125.8,508.3,125.7z"/>
					<path class="st1" d="M508.8,126.3c0,0,0,0.1,0.1,0.1C508.9,126.3,508.9,126.3,508.8,126.3c0-0.1,0-0.2-0.1-0.2
						C508.8,126.2,508.8,126.2,508.8,126.3z"/>
					<path class="st1" d="M488.1,179.1L488.1,179.1C488.1,179.1,488.2,179.1,488.1,179.1C488.2,179.1,488.2,179.1,488.1,179.1z"/>
					<polygon class="st1" points="479.7,112.1 479.7,112.2 479.9,112.1 					"/>
					<path class="st1" d="M500.4,176.4c0,0,0.1,0,0.2,0C500.5,176.4,500.5,176.4,500.4,176.4z"/>
					<path class="st1" d="M505.2,173.7c0,0,0.2-0.1,0.3-0.2c0.1,0,0.2-0.1,0.2-0.1c-0.1,0-0.2,0-0.3,0.1
						C505.3,173.6,505.2,173.7,505.2,173.7z"/>
					<path class="st1" d="M506.9,174.1c0.1,0,0.1,0,0.1,0l0,0L506.9,174.1z"/>
					<path class="st1" d="M465.6,150.4c0-0.1,0-0.1,0.1-0.2C465.8,149.9,465.7,150.1,465.6,150.4z"/>
					<path class="st1" d="M466.9,169.9c-0.2-0.2-0.3-0.3-0.4-0.5C466.6,169.7,466.7,170,466.9,169.9z"/>
					<path class="st1" d="M483.3,136.8L483.3,136.8c0,0,0.1,0,0.1,0L483.3,136.8z"/>
					<path class="st1" d="M466,168.6c0.1,0.3,0.3,0.6,0.4,0.8C466.3,169.1,466.2,168.8,466,168.6z"/>
					<path class="st1" d="M521.2,175.1l-0.3,0c0,0-0.1,0-0.1,0L521.2,175.1z"/>
					<path class="st1" d="M520.8,175.1l-0.4,0C520.5,175.2,520.7,175.2,520.8,175.1z"/>
					<path class="st1" d="M519.6,175.1l0.8,0C520.1,175.1,519.8,175.1,519.6,175.1z"/>
					<path class="st1" d="M518,180l0,0.1C518,180.1,518,180,518,180z"/>
					<path class="st1" d="M516.1,180.6c0.5,0,1.3,0,1.9-0.4l0-0.1c-0.1,0.1-0.5,0.3-0.9,0.3C516.7,180.5,516.3,180.5,516.1,180.6z"
						/>
					<path class="st1" d="M510.3,176.4c0,0,0.2,0.2,0.5,0.5c0.3,0.2,0.5,0.4,0.5,0.4c-0.1-0.2-0.3-0.5,0.2-0.2
						C510.4,175.8,511.6,177.5,510.3,176.4z"/>
					<path class="st1" d="M507.8,172.9c0.5,0.8,0.2-0.1,0.2-0.1C507.6,172.3,507.5,172.2,507.8,172.9z"/>
					<path class="st1" d="M478.8,177.7l0.2-0.2C478.4,177.4,478.9,177.6,478.8,177.7z"/>
					<polygon class="st1" points="472.8,176.3 473.2,176.7 473.6,176.6 					"/>
					<polygon class="st1" points="471.2,172.7 471.4,172.8 470.7,172.2 					"/>
					<path class="st1" d="M489.5,139.3l-0.1-0.3C489,139,488.9,139.3,489.5,139.3z"/>
					<path class="st1" d="M505.2,134.3c0.1-0.3,0.2-0.9,0-1.3C505.2,133.5,505.1,134,505.2,134.3z"/>
					<polygon class="st1" points="475.5,117.2 475.2,117.5 475.8,117 					"/>
				</g>
			</g>
		</g>
	</g>
</g>
<g>
	<path d="M571.3,99.3c-0.1-0.7-0.2-2.3-1.2-3.8c-0.9-1.3-2.1-2.1-3.2-2.8c-1.3-0.8-2.4-1.3-2.8-1.5c-2.4-1-3.1-0.6-3.8-1.3
		c-1.2-1.2-1.5-4-0.3-5.2c2.4-2.4,11.7,2.5,17.5,7.3c0.5,0.5,1,0.9,1.5,1.3c0,0,0,0,0,0c1.5,1.4,2.3,3.3,2.3,5.3
		c0.7,39.3,1.2,67.8,1.4,70.8c0.1,1.2,0.3,2.9,1.5,3.6c0.3,0.2,0.8,0.3,1.7,0.5c1.6,0.3,2.5,0.5,3.5,0.4c2.4-0.2,3.4-1.7,4-1.2
		c0.4,0.3,0.5,1.2-0.7,4.2l0,0.1c0.4,2-1,4-3,4.2c-1.8,0.2-3.9,0.3-6.3,0.1c-3.5-0.3-6.5-0.6-8.8-2.8c-2.2-2.1-3.2-5.4-3.2-9.8
		C571.5,164.6,571.7,104.4,571.3,99.3z"/>
	<g>
		<path class="st2" d="M571.3,99.3c-0.1-0.7-0.2-2.3-1.2-3.8c-0.9-1.3-2.1-2.1-3.2-2.8c-1.3-0.8-2.4-1.3-2.8-1.5
			c-2.4-1-3.1-0.6-3.8-1.3c-1.2-1.2-1.5-4-0.3-5.2c2.4-2.4,11.7,2.5,17.5,7.3c0.5,0.5,1,0.9,1.5,1.3c0,0,0,0,0,0
			c1.5,1.4,2.3,3.3,2.3,5.3c0.7,39.3,1.2,67.8,1.4,70.8c0.1,1.2,0.3,2.9,1.5,3.6c0.3,0.2,0.8,0.3,1.7,0.5c1.6,0.3,2.5,0.5,3.5,0.4
			c2.4-0.2,3.4-1.7,4-1.2c0.4,0.3,0.5,1.2-0.7,4.2l0,0.1c0.4,2-1,4-3,4.2c-1.8,0.2-3.9,0.3-6.3,0.1c-3.5-0.3-6.5-0.6-8.8-2.8
			c-2.2-2.1-3.2-5.4-3.2-9.8C571.5,164.6,571.7,104.4,571.3,99.3z"/>
		<g>
			<g>
				<g>
					<path class="st1" d="M572,99.3c-0.1-0.1-0.3,0-0.2,0.3l0.3,0.2L572,99.3z"/>
					<path class="st1" d="M571.5,101.7c0.2,0.4,0.5,0.9,0.8,0.6c-0.3-0.4-0.2-0.5-0.6-0.9c0-0.3,0.1-0.6,0.2-0.6
						c-0.1-0.1,0.1-0.6-0.2-0.7c-0.2,0.5-0.2,1,0,1.6C571.6,101.8,571.5,101.7,571.5,101.7z"/>
					<path class="st1" d="M571.1,135.7l0-0.2C571.1,135.5,571.1,135.6,571.1,135.7z"/>
					<path class="st1" d="M570.9,156.7c0-0.2,0-0.2-0.1-0.2C570.8,156.6,570.8,156.8,570.9,156.7z"/>
					<path class="st1" d="M570.5,160.3c0-0.1,0-0.1,0-0.2C570.5,160.2,570.5,160.3,570.5,160.3z"/>
					<path class="st1" d="M571.1,135.7l-0.1,0.6C571.1,136.3,571,135.9,571.1,135.7z"/>
					<path class="st1" d="M572.3,106.4c0-0.1,0-0.2-0.1-0.3L572.3,106.4C572.3,106.3,572.3,106.3,572.3,106.4z"/>
					<path class="st1" d="M570.8,126.4l0-0.2c0-0.1-0.1-0.1-0.1-0.1L570.8,126.4z"/>
					<path class="st1" d="M570.7,119.3c0,0.2,0.3,0.2,0.4,0.3c-0.1-0.1-0.2-0.2-0.2-0.4C570.9,119.2,570.8,119.2,570.7,119.3z"/>
					<path class="st1" d="M571.2,108l0-0.2C571.2,107.8,571.2,107.9,571.2,108z"/>
					<path class="st1" d="M570.7,131.5c0,0-0.1,0-0.1,0.1C570.7,131.5,570.7,131.5,570.7,131.5z"/>
					<path class="st1" d="M567.8,91.6C567.8,91.6,567.8,91.6,567.8,91.6C567.8,91.7,567.8,91.6,567.8,91.6z"/>
					<path class="st1" d="M571.3,99.3l0-0.1c-0.1,0-0.1,0-0.2,0L571.3,99.3z"/>
					<path class="st1" d="M570.1,166.9C570.1,166.9,570.1,166.9,570.1,166.9C570.1,166.7,570.1,166.8,570.1,166.9z"/>
					<path class="st1" d="M583.8,161.2c-0.2,0.7-0.3-1.1-0.6-0.1C583.3,161.1,583.6,162.1,583.8,161.2z"/>
					<path class="st1" d="M572.3,106.5l0,0.3C572.3,106.7,572.3,106.6,572.3,106.5z"/>
					<path class="st1" d="M583.2,161.2L583.2,161.2l0,0.1C583.2,161.2,583.2,161.2,583.2,161.2z"/>
					<path class="st1" d="M576.4,181.2c0-0.1-0.1-0.1-0.1-0.2C576.3,181,576.3,181,576.4,181.2z"/>
					<path class="st1" d="M570.7,170.8l0,0.3C570.7,171,570.7,170.9,570.7,170.8z"/>
					<path class="st1" d="M582.5,182.1c0.2,0,0.2,0.1,0.4,0.1c0,0,0,0-0.1,0C582.8,182.1,582.7,182.2,582.5,182.1z"/>
					<path class="st1" d="M588.8,182.2c0,0-0.1,0-0.1,0c-0.1,0-0.1,0-0.2,0L588.8,182.2z"/>
					<path class="st1" d="M564.9,85.8c-0.1-0.1-0.1-0.2-0.2-0.3C564.8,85.7,564,85.5,564.9,85.8z"/>
					<path class="st1" d="M572.2,106.4c0.1,0,0.1,0.1,0.1,0.2c0-0.1,0-0.1,0-0.2C572.2,106.3,572.2,106.3,572.2,106.4z"/>
					<path class="st1" d="M583,179.9l0.9,0.1C583.7,180,583.3,179.9,583,179.9z"/>
					<path class="st1" d="M580.7,120.2l0-0.2C580.6,120.1,580.6,120.2,580.7,120.2z"/>
					<path class="st1" d="M586.7,180.1c0.2,0.1,0.3,0.1,0.5,0.2c0,0,0.1,0,0.1-0.1L586.7,180.1z"/>
					<path class="st1" d="M564.8,85.5L564.8,85.5L564.8,85.5z"/>
					<path class="st1" d="M561,86.1c0.2-0.4-0.2-0.3-0.4-0.5c0.1-0.3,0.2-0.2,0.3-0.2c0.1,0.1,0.1,0.2,0.2,0.2
						c0.1-0.2,0.4-0.6,0.9-0.6c0,0.1,0.1,0.1,0,0.2c0.6-0.3,1.8,0.2,2.7,0.1c0,0,0.1,0.1,0.1,0.1c-0.1-0.2,0-0.4,0-0.5
						c0.4,0.1,0.8,0,0.9,0.3c-0.2-0.1-0.3,0-0.4,0l0.4,0c0.2,0.5-0.6-0.1-0.7,0.2c0.8,0.2,1.8,0.3,2.3,0.6c0,0.4-1.4-0.5-0.7,0.1
						l-0.8-0.5c0.5,0.8-0.5-0.2-0.1,0.5c1.1,0.6,1.4,0.4,2.5,1c0.3,0,0-0.3,0.4-0.3c1.8,0.6,0.9,1.4,2.2,1.7c0.4,0,0.8-0.3,1.5,0.4
						l-0.5,0.1c1,0.7,0.9-0.1,1.9,0.9c-0.3,0-0.9-0.4-0.8-0.3c0.5,0.7,0.6,0.2,1.2,0.5l-0.1,0.4c1.1,0.7,2.4,1.4,3.6,2.3
						c-0.1,0-0.4-0.1-0.2,0.2c0.4,0.3,0.8,0.6,1.1,0.9c0.3,0.3,0.6,0.6,0.8,1c0.4,0.7,0.7,1.6,0.7,2.3c0,0,0.1,0.1,0.2,0.3
						c0.1,0.1,0.2,0.3,0.2,0.3c0,0.1-0.1,0.3-0.2,0.1c-0.1,0.6,0.2,0,0.3,0.3c0,0.3-0.2,0.5-0.2,0.2c0.3,1.3,0.6,3.6,0.3,4.9
						l-0.1-0.3c-0.1,1,0.6,1.2,0.4,2.1l-0.1-0.2c-0.1,2.2,0.2,4.7-0.2,6.5c0.4,0.3-0.1,2.2,0.4,2.4c-0.3,1.3-0.4,0.9-0.5,2.7
						c0,0.5,0.4,0.7,0.5,1.3l-0.3,0l0.3,0.8l-0.4,0.4l0.1,0.6c0-0.2,0.1-0.5,0.2-0.4c0.2,0.9-0.2,2.1-0.3,2.2l0.3,2.1
						c-0.1,0-0.2-0.4-0.3-0.7c0.3,1.1-0.3,0.2,0,1.2c0.1-0.1,0.2,0.1,0.2,0.1c-0.2,0.5-0.2,1.7-0.1,2.5l-0.2-0.2
						c0,1.5,0.2,3.2,0.2,5c0.1-0.6,0.5-0.5,0.5,0l-0.3,0.2c0.2,0.3,0.1-0.5,0.4,0.1c0,0.6-0.4,0.4-0.5,0.1l0.1,0.8
						c-0.1,0-0.2-0.1-0.3-0.2c0.2,0.3-0.3,1.4,0.1,1.8l-0.1,0c0,1.7,0.2,2.5,0.2,3.9c0.3,0,0.2,0.6,0.5,1c-0.1,1-0.3,2.2-0.2,3.4
						c0.2,0.9,0.2,0.2,0.4,0.6c-0.3,0.1-0.2,1.3-0.4,0.7c0.1,1.5,0.1,1.9,0.3,3.8c0.1-0.2,0.1-0.4,0.2-0.3c0,0.3-0.1,0.8-0.2,0.7
						l0-0.1c0.4,2.1-0.6,4.9-0.1,6.6l0-0.1l0.3,1.7c0,0.8-0.2-0.5-0.3,0.1c0.5,1.9,0,3,0.3,4.5c-0.7,1.2,0.1,4.3-0.3,5.9l0.2-0.1
						c0.2,0.4-0.1,0.5-0.1,0.8c0.1-0.1,0.2-0.5,0.3-0.2c0.1,1,0,1.9,0.2,3.1c0.1,0.6,0.2,1.2,0.5,1.8c0.3,0.6,0.7,1.2,1.3,1.7
						c0.7,0.5,1.2,0.5,1.6,0.7l1.2,0.3c0.8,0.2,1.7,0.4,2.8,0.5c0.8,0,1.1-0.3,1.3-0.5c0.1-0.1,0.2-0.2,0.5-0.3
						c0.1,0,0.2-0.1,0.4-0.1c0.1,0,0.2-0.1,0.2,0c0,0,0.1,0,0.1,0c0,0,0,0.1,0,0.2c0,0.1-0.1,0.2-0.1,0.2c0.2-0.1,0.1-0.1,0.2-0.1
						c0,0,0-0.1,0.1-0.1c0-0.1,0.1-0.1,0.2-0.1c0.1,0,0.1-0.1,0.2-0.1c0.1,0,0.1,0.1,0.1,0.2c0,0.1-0.1,0.3-0.1,0.4l-0.2,0.6
						l-0.4,1.1l0.2,0.7c0,0.1,0,0.2,0.1,0.3c-0.1-0.1-0.2-0.1-0.2-0.3c-0.1,0.2-0.1,0.5-0.2,0.8c0,0.3-0.1,0.5,0,0.6
						c-0.2,0.2-0.2,0-0.4,0c-0.2,0.1-0.2,0.3-0.4,0.5c-0.1,0.2-0.3,0.3-0.4,0.3c0,0,0-0.1,0.1-0.2c-0.1,0.3-1,0.3-0.7,0.5
						c-0.9,0-1.8,0.3-2.5,0.2c-0.5,0.3-1.6-0.1-1.8,0.3c0.1-0.4-1.6-0.4-2.3-0.3c0.2-0.1-0.5-0.2-0.3-0.4c-0.7-0.1-1.3,0-1.2,0.2
						c-1.2-0.7-2.6,0-3-0.8c-1.8-0.3-3.4-1.2-4.4-2.6c0.2-0.1,0.5,0.3,0.8,0.6c0.3,0.3,0.6,0.6,0.8,0.4c-1.2-0.9-2-1.6-2.5-3.2
						c-0.1-0.4,0.3,0.2,0.4,0.3c-0.8-1.5-0.8-3.1-1.1-4.6c0,0,0.1,0.2,0.1,0.3c0-0.3,0-0.7-0.2-0.7l0.1,0.3
						c-0.3,0.5-0.7-1.2-0.8-1.3c0.6,0.5,0.1-1.6,0.9-0.7c0-0.2-0.1-0.5-0.3-0.4c0-0.3,0.1-0.4,0.3-0.1c-0.1-1.1-0.3-0.7-0.3-1.8
						c0.1,0,0.1,0.2,0.3,0.3c-0.2-0.5-0.4-1-0.3-1.9c0.1,0.1,0.1,0,0.1,0.2c0-1.5-0.5-2.5-0.3-4.2c0.4,0.5,0.1-0.6,0.5-0.6l-0.1-0.9
						l-0.2,0.4c0-0.8-0.3-1.4-0.1-2.1l0.2,0.6l-0.1-1.4l-0.1,0.8c-0.2-0.8-0.5,0.1-0.4-0.9c0,0.2,0-0.8,0.2-1.2l0,0
						c-0.1-0.4-0.2-0.8-0.1-1.3c0.1-0.1,0.4,0.1,0.5,0c-0.3-0.4-0.1-1.8-0.4-2.3c0.1,0.2,0.3,0.2,0.3,0.1l-0.3-0.3
						c0.1-0.4,0.1-0.4,0.3-0.4c0-1.1-0.5,0.3-0.3-0.9c0,0.1,0.1,0.1,0.1,0.3c0.1-1.3-0.2-2.5,0-3.6c0.4-0.3,0.1,1,0.4,0.6
						c-0.1-1.7-0.4-3.5-0.4-5.1l0,0.3c-0.5-0.2,0.3-1.2,0-2c0,0.2,0.3,0.3,0.2,0.2c0.1-1.1-0.1-2.3-0.3-4l0.1,0.2
						c0.1-0.7,0.1-1.7,0.1-2.5c-0.1-0.2-0.1-0.6-0.3-0.4c0.8-2.2-0.4-4.2,0.2-6.2c0,0.2,0.1,0.6,0.1,0.4l-0.1-1.7
						c-0.2,0.1-0.1,0.2-0.3,0.6c-0.1-0.2-0.2-0.7-0.2-1.1c0.2,0.7,0.4,0,0.5-0.3c-0.1,0.1-0.1-0.1-0.2,0c0.4-0.9-0.5-0.1-0.2-1.3
						l0.1,0.1c-0.1-0.4-0.2-0.9-0.2-1.3c0.3-0.2,0.1,0.5,0.3,0.5c0-0.7-0.5-1.3-0.2-1.9c0.1,0.3,0.1,0.7,0.2,1
						c0.3-0.7,0.2-0.7,0.3-1.2l0,0l0.1-1.1l-0.1,0.3c-0.7-0.8-0.1-1.7-0.6-2.8c0.4,1.1,0.3,0.2,0.6,0.3c0.1-0.3,0.2-0.7,0.3-0.6
						c-0.2-0.5,0.2-0.9-0.2-1.7c0.1,0,0-0.6,0.3-0.5c-0.1-0.7-0.2,0.2-0.3,0.1c-0.3-1.1,0.4-2.5-0.1-4.1c-0.2-1.3-0.5-1.6-0.7-2.8
						c0.2-0.4,0.4,0.3,0.4,0.3c0.1-0.7,0.1-1.2,0-1.8c0.1,0.1,0.2,0,0.3-0.2c0-0.5-0.4-0.3-0.2-1c0.1,0.1,0.3,0.3,0.4,0.5
						c-0.1-0.6-0.3-1.2-0.4-1.8c0.2-0.2,0.3,0.4,0.4,0.6c-0.1-0.7-0.2-1.8-0.4-2l-0.1,0.4c0-0.3,0.2-0.1,0.3,0.1
						c0.2,0.6-0.1,0.9-0.2,0.9l-0.1-0.4c-0.6,0.5,0.1,1.8,0.1,2.7l-0.4-0.4l0.4,0.9c-0.1,0.2-0.3,0.3-0.4-0.1
						c-0.2,0.6,0.2,0.6-0.1,1.1c0,0.1-0.1,0-0.1,0l0.1,0.6c-0.1-0.1-0.3,0.1-0.2-0.3c-0.2,1.1,0.3,1.8,0,2.2l0-0.1
						c0.1,1.6,0.3,0.1,0.7,1.3l-0.8,0.8l0.3,0.2c0,0.2,0,0.5-0.2,0.4c0.2,0.6,0.1-0.1,0.3,0.2c-0.3,0.8,0.1,2.1-0.3,2.3
						c0.2,0.3,0.2-0.7,0.3,0.1c-0.5,0.2,0.1,1-0.1,1.7c-0.3-0.2-0.1-0.9-0.4-0.2c0.5,0.4-0.1,1.4,0,2c0.4,0,0.2,1.3,0.3,2.3
						c-0.1-0.1-0.2,1.9-0.3,2.8l-0.1,0c0.4,0.2,0.3,1.1,0.4,1.8c-0.2,0-0.3-0.2-0.4-0.5l0,0.7c0.1,0.2,0.2,0.4,0.2,0.8l-0.3-0.2
						c0,0.9,0.3,1.8,0.1,2.9c0.3,0.1,0.7-0.9,0.9,0.3c-0.1,0-0.4,0.1-0.4-0.2c0,0.1,0.1,0.4,0.1,0.6l-0.2-0.5
						c-0.1,0.5,0.2,0.3,0.2,0.7c-0.2,0-0.1,0.3-0.3,0.2c0-0.1,0.1-0.4,0-0.5c0,0.5-0.2,1-0.3,1.2c0.1,0,0.3,0,0.3,0.3
						c0,0.9-0.2,0.3-0.3,0.8c0.1,0.2,0,0.8,0.3,0.8c0,0.3-0.1,0.3-0.2,0.4c0.1,0.5,0,2.1,0.3,1.6l0-0.1c0,0,0,0,0,0.1v0v0
						c0.3,1.5-0.2,3.1,0,4.5l-0.1,0c0.1,0.9,0.1,2,0.3,2.6c0,0.3-0.2,0.6-0.3,0.5c0.1,0.7,0.2,0.7,0,1.7c-0.2-0.7-0.2,0.2-0.1-0.7
						c-0.1,0.9-0.2,1.1,0,2c-0.3-0.3-0.3,0.7-0.2,1.1l0.2-0.6c0,0.5,0,0.9,0,1.3l-0.3-0.2c-0.4,1.8,0.7,3.2,0,4.6
						c0.2,0.5,0.2-1,0.4-0.5c0,0.8-0.5,1.7-0.5,1.9c-0.2,1.1,0.5,1,0.4,2.2c0.1-0.1,0.4-0.3,0.5,0.6c0,0.8-0.5,1-0.6,0.5
						c0-0.2,0-0.3,0.1-0.3c0-0.3-0.1-0.6-0.2-0.3l0.1,0.1c-0.1,0.4-0.1,1.5-0.3,1.3c0.1,0.6,0.2,0.3,0.3-0.2c-0.2,1.1,0,1.6-0.1,2.7
						c0.1-0.2,0.2-0.3,0.2-0.2c-0.2,1.6,0.2,0.7,0.3,1.8c-0.2,0.6-0.4-0.2-0.3,0.9c-0.1,0.7-0.3,0.1-0.4-0.1c0.2,1-0.2,1.8-0.2,2.4
						l-0.1-0.5c0.1,0.3,0.1,0.6,0.1,0.8l0.2-0.3c0,0.3,0,0.6-0.1,0.6c0.2,0.3,0.4-0.2,0.6,0.4c-0.1,0.4,0.1,1.2-0.2,1.4
						c0.1-1.3-0.3,0.1-0.4-0.9c0,0.2,0,0.5,0,0.8c0,0-0.1,0-0.1-0.1c-0.3,1.2,0.4,0.6,0.3,1.8c-0.2-0.2-0.3,0.3-0.3,0.5
						c0-0.5,0.3-0.3,0.4,0.2c-0.1,0.8,0.1,0.9,0.2,1.3l0-0.5c0.2,0.2,0.2,0.6,0.3,1.1c-0.1,0.1-0.2-0.5-0.2-0.3
						c0.4,0.6-0.1,1.5,0.3,2.4c0,0.4-0.3,0.1-0.3,0.5c0.5,1,0.1,1.2,0.7,2.2c0.1-0.4,0-0.4,0.6,0.2c0,0-0.2-0.4-0.5-0.8
						c-0.2-0.4-0.4-0.8-0.4-0.8s0.2,0.2,0.4,0.5c0.2,0.2,0.4,0.5,0.4,0.5c-0.2-0.5-0.6-1-0.6-1.4c0.3,0.5,0.3,0.4,0.4,0.1
						c-0.1,0.8,0.7,1.3,0.9,2.1l-0.5,0.3c0.2,0.7,0.6,1.1,1.1,1.6c0.5,0.5,1.1,0.9,1.7,1.5l-0.4-0.4c0.3,0,0.9,0.6,1.4,0.8
						c-0.1,0.1,0.1,0.4,0.3,0.6c0-0.1,1.2,0.5,1.5,0.2c0,0,0.2,0.1,0.3,0.2c0.2,0.1,0.3,0.2,0.3,0.2c1.3,0.4,1.6-0.2,2.8,0
						c-0.4,0.2,0.2,0.4-0.7,0.4c0.4,0.1,0.8,0.1,0.8,0c0.2,0.2,1.2-0.1,1.5,0.1c0.2-0.1,0.3-0.3,0.7-0.2c0,0,0,0.1,0,0.1
						c0-0.1,0.7-0.1,0.4-0.3c1.3,0.7,3.6,0.1,4.7,0.5c0.5-0.1,0.9-0.1,1.5-0.3c0.6-0.1,1.1-0.4,1.5-0.7c0,0.1,0.1,0.1-0.1,0.2
						c0.6-0.3,0.7-0.6,0.7-0.8c0-0.3,0.1-0.5,0.5-1c0.3-0.2,0.3-0.1,0.2,0.1c-0.1,0.2-0.3,0.4-0.1,0.3c0.3,0.1,0.6-0.4,0.7-0.9
						c0.1-0.6,0.1-1.3,0.2-1.7c0,0,0,0,0,0.1c0,0.1,0,0.1,0,0.1c0-0.1,0-0.1,0-0.2c0,0,0,0,0-0.1c0,0,0-0.1,0-0.1c0-0.1,0-0.1,0-0.2
						c0-0.2,0.1-0.3,0.1-0.5c0-0.2,0-0.3,0.1-0.6c0.1-0.3,0.1-0.5,0.2-0.8c0,0,0,0.1,0.1,0c0-0.5-0.1-1.1-0.2-1.7
						c-0.1-0.3-0.2-0.6-0.5-0.8c-0.3-0.2-0.6,0-0.9,0.1c0.4-0.4,0.5-0.2,0.5-0.5c-0.2,0-0.3,0.2-0.3,0.3c-0.1,0.1-0.2,0.3-0.7,0.5
						c-0.2,0-1,0.2-1.2,0c0,0,0.3-0.1,0.6-0.3c0.3-0.2,0.6-0.3,0.6-0.3c-0.2-0.1-0.7,0.1-1.1,0.4c-0.2,0.1-0.3,0.2-0.5,0.3
						c-0.1,0.1-0.2,0.1-0.3,0.1l0-0.2c-0.5,0.2-0.8,0.3-1.1,0.4c-0.3,0.1-0.6,0.2-1.3,0.1l0.1,0.1c-0.8,0.3-0.6-0.3-1.4-0.2
						l-0.2-0.4c-0.4,0-1.5,0.1-2.1-0.1c-0.1-0.1-0.3-0.2-0.4-0.2c0.1,0,0.3,0.1,0.4,0.1c0.3,0,1.1,0,1.6,0c-0.4-0.1-1.3-0.2-1.4-0.2
						c-0.1,0-0.1,0-0.2,0c0,0,0.1,0,0.2,0.1c0.1,0,0.2,0,0.2,0.1c-0.1,0-0.2,0.1-0.3,0c-0.4-0.1-0.9-0.5-1.2-1.2
						c0.4-0.1,0.2-0.6,0.2-1.3c-0.1-0.7,0-1.6,0.2-2c-0.3-1.8,0.1-3.6,0-5.7c-0.6,0.8,0-0.6-0.6-0.5c0-0.5,0-0.7,0-0.7l0.3-1.5
						c0.2-0.4,0.1,0.5,0.3,0.4c0-1.1,0.3-0.5,0.4-1.2c-0.2,0.2-0.3-0.4-0.2-1l-0.3,0.9c-0.4-1.5,0.5-1.3,0.1-2.8l0.2,0.5
						c-0.1-0.8-0.1-2.9-0.6-3.6c0.1-0.1,0.2-0.3,0.3,0c0-1.9-0.6-4.1-0.3-5.6l0.2,0.1c0-0.3-0.3-0.6-0.2-1c0.1,0,0.2,0.1,0.2,0
						c-0.1-0.2-0.3-0.9-0.2-1.4l0.2,0.4c0.2-1.8-0.5-2.8-0.6-4.3c0.4,0,0.6-1.4,0.6-2.2l0.1,0c0-2.1-0.4-3.6-0.6-5.5
						c0.5-1.2,0.1-4.1,0.3-6.1c-0.1,0.3-0.3,0-0.4-0.4c0.1-0.5-0.3-1.3,0.1-1.2l0,0.2c0.4-0.4,0.3-1.3,0.3-2l-0.5-0.1
						c0.7-1.9-0.4-5,0.3-6.1c-0.1-0.5-0.2-1-0.3-1.5l0.3,0c0-1.3,0.1-1.9,0-3.5l0.2,0.3c0-0.9-0.8-1.1-0.9-1.9l0.4-0.3
						c0-1.6,0.3-3.1-0.1-4.7c0.1,0,0.2,0.1,0.2,0.3c0-0.7,0.2-2.8-0.3-2.6c0.4,0,0-1.6-0.2-2.4l0.3,0.1c-0.4-0.7-0.5-0.7-0.6-1.7
						c0-0.2,0.2-0.2,0.2,0.1c0.1-0.8-0.3-0.6-0.1-1.6l0.2,0.4c0-0.8-0.1-0.8-0.4-1.2c-0.2-0.5-0.3-1.6-0.1-1.8
						c-0.2-0.1-0.5-0.4-0.7-0.9c0.1-0.1,0.2,0,0.3,0.1c-0.6-1.4-1.5-1.6-2-2.4c0-0.1,0-0.2,0-0.2c0.4,0.3,0.8,0.7,1,1
						c0.2,0.3,0.4,0.5,0.3,0.4c0.2-0.2-0.4-1,0.4-0.6c-0.3-0.3-0.8-0.6-1.3-0.8c-0.5-0.2-0.9-0.5-1.2-0.9c0,0,0-0.1,0-0.1l0.1,0
						c-0.1-0.2-0.3-0.3-0.4-0.3c-0.2-0.2-0.3-0.3-0.5-0.5c0.1-0.2-0.7-0.7-1.1-1c-0.1,0.2-0.6-0.1-0.3,0.4c0-0.1,0.1,0,0.3,0.2
						c0.1,0,0.1,0.1,0.2,0.1l0,0c0.2,0.2,0.5,0.4,0.9,0.7c-0.4-0.1-0.7-0.2-1-0.7c-0.3,0-0.6,0-0.8,0c-0.2-0.7-1.1-1.5-1.1-1.8
						c-1.2-0.6-2.7-1.6-3.7-1.6c-0.4-0.1-0.3-0.3-0.4-0.5c0.2,0.1,0.4,0.2,0.6,0.2c-0.7-0.3-2-1-2.3-0.8c-0.8-0.6,0.6-0.1-0.6-0.6
						l0.2,0c-1.1-0.8-2.2-1-3.3-1.2c-0.6-0.1-1.1-0.1-1.7-0.2c-0.6-0.1-1.2-0.2-2.1-0.3c0.2,0,0.3,0,0.4,0.1c-0.4,0-0.9,0-1.4,0.2
						c-0.5,0.2-0.9,0.6-1.2,1c-0.5,0.9-0.6,1.9-0.4,2.8c0.1,0.9,0.5,1.8,1.1,2.5c0.3,0.4,0.8,0.7,1.3,0.8c0.4,0.1,0.8,0.3,1.1,0.4
						c0.8,0.3,0.9,0.1,1.5,0.2l0.1,0.3c0,0,0.2,0,0.5,0c0.2,0,0.5,0,0.5,0c1.3,0.4,1.6,1.7,3.2,2.3l0-0.3c0.5,0.4,1.5,1.1,1.2,1.2
						c0.1,0,0.3,0,0.3,0.2l-0.1,0.1c0,0,0.3,0.2,0.5,0.5c0.2,0.3,0.5,0.6,0.5,0.6c0.2,0.5,0,0.5-0.1,0.6c-0.1,0.1-0.2,0.2,0,0.9
						c0.2,0.5,0.7,1.6,0.8,1.3c0-0.3,0-0.6,0.2-0.7l0.1,0.6c0.2,0,0.5,0.2,0.7,0.1c0.2-0.1,0.4-0.3,0.5-1.1c0,0-0.1-0.3-0.2-0.5
						c-0.1-0.3-0.3-0.5-0.3-0.5l0.1-0.4c0,0,0.1,0.2,0.1,0.5c0.1,0.2,0.1,0.5,0.1,0.5c0.1-0.6-0.2-0.9-0.5-1.2
						c0.1-0.1,0.1-0.3,0-0.5c0,0-0.9-0.8-0.9-0.8c0.1-0.2,0.6,0.2,0.2-0.5c-0.5-0.3-0.1,0.6-0.7,0c-0.2-0.5,0.1-0.6-0.5-0.9
						c0-0.1,0.2-0.1,0.4,0c-0.5-0.3-1.1-1-1.5-0.9c-0.3-0.6-1.5-0.9-1.2-1.3c-0.2,0-1-0.2-1.4-0.4c0.5,0,0.1-0.2-0.3-0.5
						c-0.5-0.3-1-0.5-0.8-0.7c-0.4,0.1-1-0.1-1.6-0.3c-0.6-0.2-1.4-0.4-1.9-0.3c0.1,0,0.2-0.1,0.3,0c-0.6-0.2-0.6-0.3-0.6-0.5
						c-0.1,0.2-0.2,0.2-0.5,0.1c-0.2-0.1-0.4-0.3-0.6-0.4c0.1-0.7,0.6,0.1,0.8-0.2c-0.1,0.1-0.3-0.1-0.4-0.2
						c-0.1-0.2-0.3-0.4-0.4-0.2c0.1-0.5,0-0.4,0.3-0.7c-0.5,0-0.1-0.4-0.4-0.8c0.3-0.6,0.5-0.1,0.5-0.6
						C560.9,85.7,560.9,86.1,561,86.1z M577.5,93L577.5,93c-0.1-0.1-0.3-0.2-0.3-0.3C577.2,92.8,577.3,92.9,577.5,93z M578.8,94.2
						c-0.1-0.1-0.3-0.3-0.5-0.5c0-0.1,0.1-0.1,0.3,0C578.4,93.6,578.7,93.9,578.8,94.2z M577.2,90.2c0.3,0.2,0.3,0.3,0.3,0.3
						c-0.1-0.1-0.2-0.2-0.4-0.3c0,0,0,0,0,0C577.1,90.2,577.1,90.2,577.2,90.2z"/>
					<path class="st1" d="M576.5,90.2c0,0-0.1,0-0.1-0.1C576.5,90.2,576.5,90.2,576.5,90.2c0,0.1,0.1,0.1,0.1,0.1
						C576.6,90.2,576.6,90.2,576.5,90.2z"/>
					<path class="st1" d="M571.1,135.4L571.1,135.4C571.1,135.4,571.1,135.4,571.1,135.4C571.1,135.4,571.1,135.4,571.1,135.4z"/>
					<polygon class="st1" points="580.5,118.2 580.6,118.2 580.5,118 					"/>
					<path class="st1" d="M572.1,125.4c0,0,0.1-0.1,0.1-0.1C572.1,125.3,572.1,125.3,572.1,125.4z"/>
					<path class="st1" d="M572.1,121.1l0.1-0.6C572.2,120.8,572.2,120.9,572.1,121.1z"/>
					<path class="st1" d="M572.3,117.8c0,0-0.1-0.1-0.1-0.1l0,0L572.3,117.8z"/>
					<path class="st1" d="M572.6,170.5c0,0,0,0.1,0,0.1C572.7,170.9,572.7,170.7,572.6,170.5z"/>
					<path class="st1" d="M571.9,154.8c0.1,0.2,0.1,0.3,0.1,0.5C572.1,155.1,572.1,154.8,571.9,154.8z"/>
					<polygon class="st1" points="582.9,179.9 582.9,179.9 583,179.9 					"/>
					<path class="st1" d="M572,156.1c0.1-0.3,0-0.5,0-0.7C572,155.6,572,155.8,572,156.1z"/>
					<path class="st1" d="M572.3,103.4l0-0.2c0,0,0,0,0,0L572.3,103.4z"/>
					<path class="st1" d="M572.3,103.2l0-0.2C572.2,103.1,572.2,103.2,572.3,103.2z"/>
					<path class="st1" d="M572.2,102.7l0.1,0.4C572.2,102.9,572.2,102.7,572.2,102.7z"/>
					<path class="st1" d="M572.2,107.8l0.1,0C572.3,107.8,572.3,107.8,572.2,107.8z"/>
					<path class="st1" d="M572.3,109.1c0-0.3,0.2-0.8,0.1-1.2l-0.1,0C572.5,108,572.1,108.8,572.3,109.1z"/>
					<path class="st1" d="M571,114.7l0.1-1.1c-0.1,0.2-0.3,0.5-0.3-0.1C570.5,114.9,571.1,113.2,571,114.7z"/>
					<path class="st1" d="M570.9,118.2c-0.1-0.6-0.2,0-0.2,0C570.8,118.5,570.8,118.6,570.9,118.2z"/>
					<path class="st1" d="M570.9,143.2l-0.3-0.1C570.7,143.6,570.7,143.2,570.9,143.2z"/>
					<polygon class="st1" points="572.2,148 572.4,147.6 572.1,147.4 					"/>
					<polygon class="st1" points="570.4,150.8 570.3,150.6 570.4,151.4 					"/>
					<path class="st1" d="M587.7,182.5l-0.2-0.3C587.2,182.3,587.1,182.6,587.7,182.5z"/>
					<path class="st1" d="M588.2,173.2c-0.2-0.2-0.6-0.3-1-0.3C587.6,173.1,588,173.2,588.2,173.2z"/>
					<polygon class="st1" points="583.1,122.9 583.2,123.3 583.1,122.6 					"/>
				</g>
			</g>
		</g>
	</g>
</g>
<g>
	<path d="M536.5,97.8c-0.1-0.7-0.2-2.3-1.2-3.8c-0.9-1.3-2.1-2.1-3.2-2.8c-1.3-0.8-2.4-1.3-2.8-1.5c-2.4-1-3.1-0.6-3.8-1.3
		c-1.2-1.2-1.5-4-0.3-5.2c2.4-2.4,11.7,2.5,17.5,7.3c0.5,0.5,1,0.9,1.5,1.3c0,0,0,0,0,0c1.5,1.4,2.3,3.3,2.3,5.3
		c0.7,39.3,1.2,67.8,1.4,70.8c0.1,1.2,0.3,2.9,1.5,3.6c0.3,0.2,0.8,0.3,1.7,0.5c1.3,0.2,2.3,0.5,3.5,0.4c2.3-0.1,3.1-1,3.6-0.5
		c0.4,0.3,0.6,1.1-0.3,3.5l0,0.1c0.4,2-1,4-3,4.2c-1.8,0.2-3.9,0.3-6.3,0.1c-3.5-0.3-6.5-0.6-8.8-2.8c-2.2-2.1-3.2-5.4-3.2-9.8
		C536.6,163.1,536.8,102.9,536.5,97.8z"/>
	<g>
		<path class="st2" d="M536.5,97.8c-0.1-0.7-0.2-2.3-1.2-3.8c-0.9-1.3-2.1-2.1-3.2-2.8c-1.3-0.8-2.4-1.3-2.8-1.5
			c-2.4-1-3.1-0.6-3.8-1.3c-1.2-1.2-1.5-4-0.3-5.2c2.4-2.4,11.7,2.5,17.5,7.3c0.5,0.5,1,0.9,1.5,1.3c0,0,0,0,0,0
			c1.5,1.4,2.3,3.3,2.3,5.3c0.7,39.3,1.2,67.8,1.4,70.8c0.1,1.2,0.3,2.9,1.5,3.6c0.3,0.2,0.8,0.3,1.7,0.5c1.3,0.2,2.3,0.5,3.5,0.4
			c2.3-0.1,3.1-1,3.6-0.5c0.4,0.3,0.6,1.1-0.3,3.5l0,0.1c0.4,2-1,4-3,4.2c-1.8,0.2-3.9,0.3-6.3,0.1c-3.5-0.3-6.5-0.6-8.8-2.8
			c-2.2-2.1-3.2-5.4-3.2-9.8C536.6,163.1,536.8,102.9,536.5,97.8z"/>
		<g>
			<g>
				<g>
					<path class="st1" d="M537.1,97.8c-0.1-0.1-0.3,0-0.2,0.3l0.3,0.2L537.1,97.8z"/>
					<path class="st1" d="M536.6,100.2c0.2,0.4,0.5,0.9,0.8,0.6c-0.3-0.4-0.2-0.5-0.6-0.9c0-0.3,0.1-0.6,0.2-0.6
						c-0.1-0.1,0.1-0.5-0.2-0.7c-0.2,0.5-0.2,1,0,1.6C536.7,100.3,536.6,100.2,536.6,100.2z"/>
					<path class="st1" d="M536.2,134l0-0.2C536.2,133.8,536.2,133.9,536.2,134z"/>
					<path class="st1" d="M536,154.9c0-0.2,0-0.2-0.1-0.2C535.9,154.8,535.9,154.9,536,154.9z"/>
					<path class="st1" d="M535.6,158.5c0-0.1,0-0.1,0-0.2C535.6,158.3,535.6,158.4,535.6,158.5z"/>
					<path class="st1" d="M536.2,134l-0.1,0.6C536.2,134.6,536.2,134.2,536.2,134z"/>
					<path class="st1" d="M537.4,104.8c0-0.1,0-0.2-0.1-0.3L537.4,104.8C537.4,104.8,537.4,104.8,537.4,104.8z"/>
					<path class="st1" d="M535.9,124.7l0-0.2c0-0.1-0.1-0.1-0.1-0.1L535.9,124.7z"/>
					<path class="st1" d="M535.9,117.6c0,0.2,0.3,0.2,0.4,0.3c-0.1-0.1-0.2-0.2-0.2-0.3C536,117.6,535.9,117.6,535.9,117.6z"/>
					<path class="st1" d="M536.3,106.4l0-0.2C536.3,106.3,536.3,106.3,536.3,106.4z"/>
					<path class="st1" d="M535.9,129.8c0,0-0.1,0-0.1,0.1C535.8,129.9,535.8,129.8,535.9,129.8z"/>
					<path class="st1" d="M533,90.1C532.9,90.1,532.9,90.2,533,90.1C533,90.2,533,90.2,533,90.1z"/>
					<path class="st1" d="M536.4,97.8l0-0.1c-0.1,0-0.1,0-0.2,0L536.4,97.8z"/>
					<path class="st1" d="M535.2,165C535.2,165,535.2,165,535.2,165C535.2,164.8,535.2,164.9,535.2,165z"/>
					<path class="st1" d="M548.9,159.1c-0.2,0.7-0.3-1.1-0.6-0.1C548.4,158.9,548.7,159.9,548.9,159.1z"/>
					<path class="st1" d="M537.4,105l0,0.3C537.4,105.2,537.4,105.1,537.4,105z"/>
					<path class="st1" d="M548.3,159L548.3,159l0,0.1C548.3,159.1,548.3,159.1,548.3,159z"/>
					<path class="st1" d="M541.1,179.4c0-0.1,0-0.1-0.1-0.2C540.9,179.3,541,179.3,541.1,179.4z"/>
					<path class="st1" d="M535.8,168.9l0,0.3C535.8,169.1,535.8,169,535.8,168.9z"/>
					<path class="st1" d="M547.2,180.5c0.2,0,0.2,0.1,0.4,0.1c0,0,0,0-0.1,0C547.4,180.6,547.3,180.6,547.2,180.5z"/>
					<path class="st1" d="M553.4,180.7c0,0-0.1,0-0.1,0c-0.1,0-0.1,0-0.2,0L553.4,180.7z"/>
					<path class="st1" d="M529.9,84.3c-0.1-0.1-0.1-0.2-0.2-0.3C529.8,84.2,529,84,529.9,84.3z"/>
					<path class="st1" d="M537.3,104.8c0.1,0,0.1,0.1,0.1,0.2c0-0.1,0-0.1,0-0.2C537.3,104.8,537.3,104.8,537.3,104.8z"/>
					<path class="st1" d="M547.6,178.4l0.9,0.1C548.3,178.4,548,178.4,547.6,178.4z"/>
					<path class="st1" d="M545.8,118.3l0-0.2C545.7,118.2,545.7,118.3,545.8,118.3z"/>
					<path class="st1" d="M551.3,178.6c0.2,0.1,0.3,0.2,0.5,0.2c0,0,0.1,0,0.1-0.1L551.3,178.6z"/>
					<path class="st1" d="M529.7,84L529.7,84L529.7,84z"/>
					<path class="st1" d="M526.1,84.7c0.2-0.4-0.3-0.3-0.4-0.5c0.1-0.3,0.2-0.3,0.3-0.2c0.1,0.1,0.2,0.2,0.2,0.2
						c0-0.2,0.4-0.6,0.8-0.6c0,0.1,0.1,0.1,0,0.2c0.6-0.3,1.8,0.2,2.7,0.1c0,0,0.1,0.1,0.1,0.1c-0.1-0.2,0-0.4,0-0.5
						c0.4,0.1,0.8,0,0.8,0.3c-0.2-0.1-0.3,0-0.4,0l0.4,0c0.2,0.5-0.6-0.1-0.7,0.2c0.8,0.1,1.8,0.3,2.3,0.6c0,0.4-1.4-0.5-0.7,0.1
						c0,0-0.2-0.1-0.4-0.2c-0.2-0.1-0.4-0.2-0.4-0.2c0.5,0.8-0.5-0.2-0.1,0.5c1.1,0.6,1.4,0.4,2.4,1c0.3,0,0-0.3,0.4-0.3
						c1.8,0.5,0.9,1.4,2.2,1.7c0.4,0,0.8-0.3,1.4,0.4l-0.5,0.2c1,0.7,0.9-0.1,1.8,0.9c-0.3,0-0.9-0.4-0.8-0.3
						c0.5,0.7,0.6,0.1,1.2,0.5l-0.1,0.4c1.1,0.7,2.4,1.4,3.6,2.3c-0.1,0-0.4-0.1-0.2,0.2c0.4,0.3,0.7,0.6,1.1,0.9
						c0.3,0.3,0.6,0.6,0.8,1c0.5,0.7,0.7,1.5,0.8,2.3c0,0,0.4,0.5,0.4,0.5c0,0.1-0.1,0.3-0.2,0.1c0,0.6,0.2,0,0.3,0.3
						c0,0.4-0.1,0.5-0.2,0.3c0.3,1.2,0.6,3.5,0.3,4.8l-0.1-0.3c-0.1,1,0.6,1.2,0.4,2.1l-0.1-0.2c-0.1,2.2,0.2,4.7-0.2,6.4
						c0.4,0.3-0.1,2.2,0.4,2.3c-0.3,1.3-0.4,0.9-0.5,2.7c0,0.5,0.4,0.7,0.5,1.3l-0.3,0l0.3,0.8l-0.4,0.4l0.1,0.6
						c0-0.2,0.1-0.5,0.2-0.4c0.2,0.9-0.2,2.1-0.3,2.2l0.3,2c-0.1,0-0.2-0.4-0.3-0.7c0.3,1.1-0.3,0.2,0,1.2c0.1-0.1,0.2,0.1,0.2,0.1
						c-0.2,0.5-0.2,1.6-0.1,2.5l-0.2-0.2c0,1.5,0.2,3.2,0.2,4.9c0.1-0.6,0.5-0.5,0.5,0L546,130c0.2,0.3,0.1-0.5,0.4,0.1
						c0,0.6-0.4,0.4-0.5,0.1l0.1,0.8c-0.1,0-0.2-0.1-0.3-0.2c0.2,0.3-0.3,1.4,0.1,1.8l-0.1,0c0,1.7,0.2,2.5,0.2,3.9
						c0.3,0,0.2,0.6,0.5,1c-0.1,1-0.3,2.2-0.2,3.4c0.2,0.9,0.2,0.2,0.4,0.6c-0.3,0.1-0.2,1.3-0.4,0.7c0.1,1.5,0.1,1.9,0.3,3.8
						c0.1-0.2,0.1-0.4,0.2-0.3c0,0.3-0.1,0.8-0.2,0.7l0-0.1c0.4,2.1-0.7,4.9-0.1,6.5l0-0.1l0.3,1.7c0,0.8-0.2-0.5-0.3,0.1
						c0.5,1.9,0,3,0.3,4.5c-0.7,1.2,0.1,4.2-0.3,5.9l0.2-0.1c0.2,0.4-0.1,0.5-0.1,0.8c0.1-0.1,0.2-0.5,0.3-0.2
						c0,0.5,0.1,1.1,0.1,1.6c0,0.5,0,1.1,0.1,1.7c0.1,0.6,0.2,1.3,0.4,2c0.2,0.7,0.7,1.4,1.4,1.9c0.6,0.4,1.1,0.5,1.4,0.6l1.1,0.3
						c0.7,0.2,1.4,0.4,2.2,0.5c0.8,0.1,1-0.2,1.3-0.4c0.3-0.2,0.5-0.3,1.5-0.3c0,0-0.1,0.1-0.2,0.2c-0.1,0.1-0.2,0.2-0.2,0.2
						c0.3-0.1,0.6-0.2,0.9-0.3l0.1,0l0,0l0,0l0.1,0c0.1-0.1,0.3-0.1,0.3,0c0,0.1,0,0.2,0,0.4l-0.1,0.5l-0.3,1l0.1,0.6l0,0.3
						c0,0.2,0,0.3,0,0.5c-0.1-0.1-0.2-0.1-0.1-0.3c-0.1,0.2-0.2,0.4-0.3,0.7c-0.1,0.3-0.1,0.5-0.1,0.6c-0.2,0.2-0.2-0.1-0.4,0
						c-0.2,0.1-0.3,0.3-0.4,0.4c-0.1,0.2-0.3,0.3-0.4,0.2c0,0,0.1-0.1,0.1-0.1c-0.1,0.1-0.3,0.2-0.5,0.2c-0.3,0.1-0.5,0.1-0.4,0.2
						c-0.9,0-1.8,0.3-2.5,0.1c-0.5,0.3-1.6-0.2-1.8,0.3c0.1-0.4-1.6-0.5-2.3-0.3c0.2-0.1-0.5-0.2-0.3-0.4c-0.7-0.1-1.3-0.1-1.2,0.2
						c-0.6-0.3-1.2-0.3-1.8-0.4c-0.5,0-1-0.1-1.2-0.5c-1.8-0.3-3.3-1.4-4.2-2.8c0.2-0.1,0.5,0.3,0.7,0.6c0.3,0.3,0.6,0.6,0.7,0.4
						c-1.1-1-2-1.7-2.4-3.3c-0.1-0.4,0.3,0.2,0.4,0.3c-0.7-1.5-0.7-3.1-1-4.6c0,0,0.1,0.2,0.1,0.3c0-0.3,0-0.7-0.2-0.7l0.1,0.3
						c-0.3,0.5-0.7-1.2-0.8-1.3c0.6,0.5,0.2-1.6,0.9-0.7c0-0.2-0.1-0.5-0.3-0.4c0-0.3,0.1-0.4,0.3-0.1c-0.1-1.1-0.3-0.7-0.3-1.7
						c0.1,0,0.1,0.2,0.3,0.3c-0.2-0.5-0.4-1-0.3-1.9c0.1,0.1,0.1,0,0.1,0.2c0-1.5-0.5-2.5-0.3-4.1c0.4,0.5,0.1-0.6,0.5-0.6l-0.1-0.9
						l-0.2,0.4c0-0.8-0.3-1.4-0.1-2.1l0.2,0.6l-0.1-1.4l-0.1,0.8c-0.2-0.8-0.5,0.1-0.4-0.9c0,0.2,0-0.8,0.2-1.2l0,0
						c-0.1-0.4-0.2-0.8-0.1-1.3c0.1-0.1,0.4,0.1,0.5,0c-0.3-0.4-0.1-1.8-0.4-2.3c0.1,0.2,0.3,0.2,0.3,0.1l-0.3-0.3
						c0.1-0.4,0.1-0.4,0.3-0.3c0-1.1-0.5,0.3-0.3-0.9c0,0.1,0.1,0.1,0.1,0.3c0.1-1.3-0.2-2.5,0-3.6c0.4-0.3,0.1,1,0.4,0.6
						c-0.1-1.7-0.4-3.5-0.4-5.1l0,0.3c-0.5-0.2,0.3-1.2,0-2c0,0.2,0.3,0.3,0.2,0.2c0.1-1.1-0.1-2.3-0.3-4l0.1,0.2
						c0.1-0.7,0.1-1.7,0.1-2.4c-0.1-0.2-0.1-0.6-0.3-0.4c0.8-2.2-0.4-4.2,0.2-6.1c0,0.2,0.1,0.6,0.1,0.4l-0.1-1.7
						c-0.2,0.1-0.1,0.2-0.3,0.6c-0.1-0.2-0.2-0.7-0.2-1.1c0.2,0.7,0.4,0,0.5-0.3c-0.1,0.1-0.1-0.1-0.2,0c0.4-0.9-0.5-0.1-0.2-1.3
						l0.1,0.1c-0.1-0.4-0.2-0.8-0.2-1.3c0.3-0.2,0.1,0.5,0.3,0.5c0-0.7-0.5-1.3-0.2-1.9c0.1,0.3,0.1,0.7,0.2,1
						c0.3-0.7,0.2-0.7,0.3-1.2l0,0l0.1-1.1l-0.1,0.3c-0.7-0.8-0.1-1.7-0.6-2.8c0.4,1.1,0.3,0.2,0.6,0.3c0.1-0.3,0.2-0.7,0.3-0.6
						c-0.2-0.5,0.2-0.9-0.2-1.6c0.1,0,0-0.6,0.3-0.5c-0.1-0.7-0.2,0.2-0.3,0.1c-0.3-1.1,0.4-2.5-0.1-4c-0.2-1.3-0.5-1.6-0.7-2.8
						c0.2-0.4,0.4,0.3,0.4,0.3c0.1-0.7,0.1-1.2,0-1.8c0.1,0.1,0.2,0,0.3-0.2c0-0.5-0.4-0.3-0.2-1c0.1,0.1,0.3,0.3,0.4,0.5
						c-0.1-0.6-0.3-1.2-0.4-1.8c0.2-0.2,0.3,0.4,0.4,0.6c-0.1-0.7-0.2-1.8-0.4-2l-0.1,0.4c0-0.3,0.2-0.1,0.3,0.1
						c0.2,0.6-0.1,0.9-0.2,0.9l-0.1-0.4c-0.6,0.5,0.1,1.8,0.1,2.7l-0.4-0.4l0.4,0.9c-0.1,0.2-0.3,0.3-0.4-0.1
						c-0.2,0.6,0.2,0.6-0.1,1.1c0,0.1-0.1,0-0.1,0l0.1,0.6c-0.1-0.1-0.3,0.1-0.2-0.3c-0.2,1.1,0.3,1.8,0,2.2l0-0.1
						c0.1,1.5,0.3,0.1,0.7,1.3l-0.8,0.8l0.3,0.2c0,0.2,0,0.5-0.2,0.4c0.2,0.6,0.1-0.1,0.3,0.2c-0.3,0.8,0.1,2.1-0.3,2.3
						c0.2,0.3,0.2-0.7,0.3,0.1c-0.5,0.2,0.1,0.9-0.1,1.6c-0.3-0.2-0.1-0.9-0.4-0.2c0.5,0.4-0.1,1.4,0,2c0.4,0,0.2,1.3,0.3,2.3
						c-0.1-0.1-0.2,1.9-0.3,2.8l-0.1,0c0.4,0.2,0.3,1.1,0.4,1.8c-0.2,0-0.3-0.2-0.4-0.5l0,0.7c0.1,0.2,0.2,0.4,0.2,0.8l-0.3-0.2
						c0,0.9,0.3,1.7,0.1,2.9c0.3,0.1,0.7-0.9,0.9,0.3c-0.1,0-0.4,0.1-0.4-0.2c0,0.1,0.1,0.4,0.1,0.6l-0.2-0.5
						c-0.1,0.5,0.2,0.3,0.2,0.7c-0.2,0-0.1,0.3-0.3,0.2c0-0.1,0.1-0.4,0-0.5c0,0.5-0.2,1-0.3,1.2c0.1,0,0.3,0,0.3,0.3
						c0,0.9-0.2,0.3-0.3,0.8c0.1,0.2,0,0.8,0.3,0.8c0,0.3-0.1,0.3-0.2,0.4c0.1,0.4,0,2.1,0.4,1.6l0-0.1c0,0,0,0,0,0.1v0v0
						c0.3,1.5-0.2,3.1,0,4.5l-0.1,0c0.1,0.9,0.1,1.9,0.3,2.6c0,0.3-0.2,0.6-0.3,0.5c0.1,0.7,0.2,0.7,0,1.7c-0.2-0.7-0.2,0.2-0.1-0.7
						c-0.1,0.9-0.2,1.1,0,2c-0.3-0.3-0.3,0.7-0.2,1.1l0.2-0.6c0,0.5,0,0.9,0,1.3l-0.3-0.2c-0.4,1.8,0.7,3.2,0,4.5
						c0.2,0.5,0.2-1,0.4-0.5c0,0.8-0.5,1.7-0.5,1.9c-0.2,1.1,0.5,1,0.4,2.2c0.1-0.1,0.4-0.3,0.5,0.6c0,0.8-0.5,1-0.6,0.5
						c0-0.2,0-0.3,0.1-0.3c0-0.3-0.1-0.6-0.2-0.3l0.1,0.1c-0.1,0.4-0.1,1.5-0.3,1.3c0.1,0.6,0.2,0.3,0.3-0.2c-0.2,1,0,1.6-0.1,2.7
						c0.1-0.2,0.2-0.3,0.2-0.2c-0.2,1.6,0.2,0.7,0.3,1.8c-0.2,0.6-0.4-0.2-0.3,0.9c-0.1,0.7-0.3,0.1-0.4-0.1c0.2,1-0.2,1.8-0.2,2.4
						l-0.1-0.5c0.1,0.3,0.1,0.6,0.1,0.8l0.2-0.3c0,0.3,0,0.6-0.1,0.6c0.2,0.3,0.4-0.2,0.6,0.4c-0.1,0.4,0.1,1.2-0.2,1.4
						c0.1-1.3-0.3,0.1-0.4-0.9c0,0.2,0,0.5,0,0.8c0,0-0.1,0-0.1-0.1c-0.3,1.2,0.4,0.6,0.3,1.8c-0.2-0.2-0.3,0.3-0.3,0.5
						c0-0.5,0.3-0.3,0.4,0.2c-0.1,0.8,0.1,0.9,0.1,1.3l0-0.5c0.2,0.2,0.2,0.6,0.3,1.1c-0.1,0.1-0.1-0.5-0.2-0.3
						c0.4,0.6-0.2,1.5,0.2,2.4c0,0.4-0.3,0.1-0.3,0.5c0.5,1,0,1.2,0.6,2.2c0.1-0.4,0-0.4,0.5,0.2c0,0-0.2-0.4-0.4-0.8
						c-0.2-0.4-0.4-0.8-0.4-0.8s0.2,0.3,0.3,0.5c0.2,0.2,0.4,0.5,0.4,0.5c-0.2-0.5-0.5-1-0.5-1.4c0.3,0.5,0.3,0.4,0.4,0.1
						c-0.1,0.8,0.6,1.3,0.8,2.1L537,175c0.2,0.7,0.6,1.2,1,1.6c0.5,0.5,1,0.9,1.6,1.5l-0.4-0.4c0.3,0,0.8,0.7,1.4,0.9
						c-0.2,0.1,0.1,0.4,0.3,0.6c0-0.1,1.2,0.6,1.5,0.3c0,0,0.2,0.1,0.3,0.2c0.2,0.1,0.3,0.2,0.3,0.2c1.3,0.5,1.6-0.2,2.8,0.1
						c-0.4,0.2,0.1,0.4-0.7,0.4c0.4,0.1,0.8,0.2,0.8,0c0.2,0.2,1.2-0.1,1.5,0.1c0.2-0.1,0.3-0.3,0.7-0.2c0,0,0,0.1,0,0.1
						c0-0.1,0.7-0.1,0.3-0.3c1.2,0.8,3.6,0.1,4.7,0.5c0.5-0.1,1-0.2,1.4-0.2c0.5-0.1,1.1-0.2,1.5-0.4c0,0.1,0,0.1-0.1,0.1
						c0.7-0.2,0.7-0.5,0.8-0.7c0.1-0.3,0.2-0.5,0.7-0.9c0.7-0.4-0.3,0.7,0,0.4c0.3,0.1,0.6-0.3,0.8-0.8c0.2-0.6,0.3-1.2,0.5-1.7
						l0,0.3c0.2-0.4,0.1-1-0.1-1.1c0-0.1,0-0.2,0-0.5c0.1-0.3,0.1-0.5,0.2-0.9c0,0,0,0.1,0.1,0c0-0.6,0-1.2-0.3-1.8
						c-0.1-0.3-0.3-0.6-0.7-0.7c-0.3-0.1-0.6,0-0.9,0.1c0.4-0.3,0.6-0.2,0.5-0.5c-0.6,0.1,0,0.4-1,0.7c-0.1,0-0.5,0-0.7,0
						c-0.2,0-0.4-0.1-0.5-0.2c0,0,0.2,0,0.4-0.1c0.1,0,0.5-0.2,0.5-0.1c-0.4-0.1-0.6,0-0.9,0.1c-0.2,0.1-0.5,0.2-0.7,0.2l0-0.2
						c-1.2,0.1-1.2,0.5-2.6,0.3l0.1,0.1c-0.8,0.3-0.6-0.3-1.4-0.2l-0.2-0.4c-0.3,0-1,0-1.3-0.1c-0.3-0.1-0.6-0.4-0.8-0.6
						c0.3,0.1,0.6,0.4,0.9,0.5c0.2,0,0.5,0,0.8,0c-0.2,0-0.6-0.1-0.7-0.2c-0.2-0.1-0.4-0.3-0.6-0.3c0.1,0.1,0.3,0.2,0.4,0.3
						c-0.5,0-1.1-0.7-1.3-1.6c0.4,0,0.3-0.6,0.3-1.3c0-0.8,0-1.7,0.3-2.1c-0.3-1.8,0.1-3.6,0-5.7c-0.6,0.8,0-0.6-0.6-0.5
						c0-0.5,0-0.7,0-0.7l0.3-1.5c0.2-0.4,0.1,0.5,0.3,0.4c0-1.1,0.3-0.5,0.4-1.2c-0.2,0.2-0.3-0.4-0.2-1l-0.3,0.9
						c-0.4-1.5,0.5-1.3,0.1-2.8l0.2,0.5c-0.1-0.8-0.1-2.8-0.6-3.6c0.1-0.1,0.2-0.3,0.3,0c0-1.8-0.6-4.1-0.3-5.5l0.2,0.1
						c0-0.3-0.3-0.6-0.2-1c0.1,0,0.2,0.1,0.2,0c-0.1-0.2-0.3-0.9-0.2-1.4l0.2,0.4c0.2-1.8-0.5-2.7-0.6-4.2c0.4,0,0.6-1.4,0.6-2.1
						l0.1,0c0-2.1-0.4-3.5-0.6-5.5c0.5-1.2,0.1-4.1,0.3-6c-0.1,0.3-0.3,0-0.4-0.4c0.1-0.5-0.3-1.2,0.1-1.2l0,0.2
						c0.4-0.4,0.3-1.3,0.3-2l-0.5-0.1c0.7-1.9-0.4-5,0.3-6c-0.1-0.5-0.2-1-0.3-1.5l0.3,0c0-1.3,0.1-1.9,0-3.5l0.2,0.3
						c0-0.9-0.8-1.1-0.9-1.9l0.4-0.3c0-1.6,0.3-3.1-0.1-4.7c0.1,0,0.2,0.1,0.2,0.3c0-0.7,0.2-2.8-0.3-2.6c0.4,0,0-1.6-0.2-2.4
						l0.3,0.1c-0.4-0.7-0.5-0.7-0.6-1.7c0-0.2,0.2-0.2,0.2,0.1c0.1-0.8-0.3-0.6-0.2-1.6l0.2,0.4c0-0.9-0.1-0.8-0.4-1.2
						c-0.2-0.5-0.4-1.6-0.2-1.8c-0.2-0.1-0.6-0.4-0.8-0.9c0-0.1,0.2,0,0.3,0.1c-0.6-1.4-1.6-1.6-2.1-2.4c0-0.1,0-0.2,0-0.2
						c0.4,0.4,0.8,0.7,1,1c0.3,0.3,0.4,0.5,0.3,0.4c0.2-0.2-0.4-0.9,0.4-0.6c-0.7-0.6-1.9-1-2.5-1.6c0,0,0-0.1,0-0.1l0.1,0
						c-0.1-0.2-0.3-0.2-0.4-0.3c-0.2-0.2-0.3-0.3-0.5-0.5c0.1-0.2-0.7-0.7-1.1-1c-0.1,0.2-0.6-0.1-0.3,0.4c0-0.1,0.1,0,0.3,0.2
						c0.1,0,0.1,0.1,0.2,0.1l0,0c0.2,0.2,0.5,0.4,0.9,0.7c-0.4-0.1-0.7-0.2-1-0.6c-0.3,0-0.6,0-0.8,0c-0.2-0.7-1.1-1.5-1.1-1.8
						c-1.2-0.6-2.7-1.6-3.7-1.6c-0.4-0.1-0.3-0.3-0.4-0.5c0.2,0.1,0.4,0.2,0.6,0.2c-0.7-0.3-2-1-2.3-0.8c-0.8-0.6,0.6-0.1-0.6-0.6
						l0.2,0c-1.1-0.8-2.2-1-3.3-1.2c-0.6-0.1-1.1-0.1-1.7-0.2c-0.6-0.1-1.2-0.2-2.1-0.3c0.2,0,0.3,0,0.4,0.1c-0.4,0-0.9,0.1-1.4,0.3
						c-0.5,0.2-0.9,0.6-1.1,1.1c-0.5,0.9-0.5,1.9-0.3,2.8c0.2,0.9,0.5,1.8,1.2,2.5c0.3,0.4,0.9,0.6,1.3,0.7c0.4,0.1,0.8,0.2,1.1,0.4
						c0.8,0.3,0.9,0.2,1.5,0.2l0.1,0.3c0,0,0.2,0,0.5,0c0.2,0,0.5,0,0.5,0c1.3,0.4,1.6,1.7,3.2,2.3l0-0.3c0.5,0.4,1.4,1.1,1.2,1.2
						c0.1,0,0.3,0,0.3,0.2l-0.1,0.1c0,0,0.3,0.2,0.5,0.5c0.2,0.3,0.4,0.6,0.4,0.6c0.2,0.5,0,0.5-0.1,0.6c-0.1,0.1-0.2,0.2,0,0.9
						c0.2,0.5,0.7,1.6,0.7,1.3c0-0.3,0-0.6,0.2-0.7l0.1,0.6c0.2,0,0.5,0.2,0.7,0.1c0.2-0.1,0.4-0.3,0.5-1.1c0,0-0.1-0.3-0.2-0.5
						c-0.1-0.3-0.3-0.5-0.3-0.5l0.1-0.4c0,0,0.1,0.2,0.1,0.5c0.1,0.2,0.1,0.5,0.1,0.5c0.1-0.6-0.2-0.9-0.4-1.2
						c0.1-0.1,0.1-0.3,0-0.5c0,0-0.9-0.8-0.9-0.8c0.1-0.2,0.6,0.2,0.3-0.5c-0.5-0.3-0.1,0.6-0.7,0c-0.2-0.5,0.1-0.5-0.5-0.9
						c0-0.1,0.2-0.1,0.4,0c-0.5-0.3-1.1-1-1.5-0.9c-0.3-0.6-1.5-0.9-1.2-1.3c-0.2,0-1-0.2-1.4-0.4c0.5,0,0.1-0.2-0.3-0.5
						c-0.5-0.3-1-0.5-0.8-0.7c-0.4,0.1-1-0.1-1.6-0.3c-0.6-0.2-1.4-0.4-1.9-0.3c0.1,0,0.2-0.1,0.3,0c-0.6-0.2-0.7-0.3-0.7-0.5
						c-0.1,0.2-0.2,0.2-0.4,0.2c-0.2-0.1-0.4-0.3-0.6-0.4c0-0.4,0.2-0.3,0.3-0.2c0.2,0.1,0.3,0.1,0.4,0c-0.1,0.1-0.3,0-0.4-0.2
						c-0.1-0.2-0.3-0.4-0.4-0.2c0.1-0.5,0-0.4,0.3-0.7c-0.5,0-0.1-0.4-0.4-0.8c0.2-0.3,0.3-0.3,0.4-0.3c0.1,0,0.1-0.1,0.1-0.3
						C526,84.3,526.1,84.7,526.1,84.7z M542.5,91.3L542.5,91.3c-0.1-0.1-0.3-0.2-0.3-0.3C542.2,91.1,542.3,91.2,542.5,91.3z
						 M543.8,92.5c-0.1-0.1-0.3-0.3-0.6-0.5c0-0.1,0.1-0.1,0.3,0C543.4,92,543.7,92.3,543.8,92.5z M542.1,88.5
						c0.3,0.1,0.3,0.3,0.3,0.3c-0.1-0.1-0.2-0.2-0.4-0.3c0,0,0,0,0,0C542,88.6,542.1,88.5,542.1,88.5z"/>
					<path class="st1" d="M541.5,88.5c0,0-0.1,0-0.1-0.1C541.4,88.5,541.4,88.6,541.5,88.5c0,0.1,0.1,0.1,0.1,0.1
						C541.6,88.6,541.5,88.6,541.5,88.5z"/>
					<path class="st1" d="M536.2,133.7L536.2,133.7C536.2,133.7,536.3,133.7,536.2,133.7C536.3,133.7,536.3,133.7,536.2,133.7z"/>
					<polygon class="st1" points="545.6,116.3 545.7,116.3 545.6,116.1 					"/>
					<path class="st1" d="M537.2,123.8c0,0,0.1-0.1,0.1-0.1C537.3,123.6,537.2,123.7,537.2,123.8z"/>
					<path class="st1" d="M537.3,119.5l0.1-0.6C537.3,119.1,537.3,119.3,537.3,119.5z"/>
					<path class="st1" d="M537.4,116.2c0,0-0.1-0.1-0.1-0.1l0,0L537.4,116.2z"/>
					<path class="st1" d="M537.7,168.6c0,0,0,0.1,0,0.1C537.8,169,537.8,168.8,537.7,168.6z"/>
					<path class="st1" d="M537.1,153c0.1,0.2,0.1,0.3,0.1,0.5C537.2,153.2,537.2,153,537.1,153z"/>
					<polygon class="st1" points="547.5,178.3 547.5,178.3 547.6,178.4 					"/>
					<path class="st1" d="M537.2,154.3c0.1-0.3,0-0.5,0-0.7C537.2,153.8,537.1,154,537.2,154.3z"/>
					<path class="st1" d="M537.4,101.9l0-0.2c0,0,0,0,0,0L537.4,101.9z"/>
					<path class="st1" d="M537.4,101.7l0-0.2C537.4,101.6,537.4,101.7,537.4,101.7z"/>
					<path class="st1" d="M537.3,101.1l0.1,0.4C537.4,101.4,537.4,101.2,537.3,101.1z"/>
					<path class="st1" d="M537.4,106.2l0.1,0C537.4,106.3,537.4,106.2,537.4,106.2z"/>
					<path class="st1" d="M537.4,107.6c0-0.3,0.2-0.8,0.1-1.2l-0.1,0C537.6,106.5,537.2,107.3,537.4,107.6z"/>
					<path class="st1" d="M536.2,113.1l0.1-1.1c-0.1,0.2-0.3,0.5-0.3-0.1C535.6,113.3,536.2,111.7,536.2,113.1z"/>
					<path class="st1" d="M536,116.6c-0.1-0.6-0.2,0-0.2,0C535.9,116.9,535.9,117,536,116.6z"/>
					<path class="st1" d="M536,141.5l-0.3-0.1C535.8,141.9,535.8,141.4,536,141.5z"/>
					<polygon class="st1" points="537.3,146.2 537.5,145.8 537.2,145.6 					"/>
					<polygon class="st1" points="535.5,149.1 535.5,148.9 535.5,149.6 					"/>
					<path class="st1" d="M552.3,181l-0.2-0.3C551.8,180.8,551.7,181.1,552.3,181z"/>
					<path class="st1" d="M552.6,171.6c-0.2-0.2-0.6-0.4-1-0.3C552.1,171.4,552.4,171.6,552.6,171.6z"/>
					<polygon class="st1" points="548.2,121 548.3,121.4 548.2,120.7 					"/>
				</g>
			</g>
		</g>
	</g>
</g>
</svg>
